<svg xmlns="http://www.w3.org/2000/svg" xmlns:xlink="http://www.w3.org/1999/xlink" contentStyleType="text/css" data-diagram-type="CLASS" height="579px" preserveAspectRatio="none" style="width:374px;height:579px;background:#1B1B1B;" version="1.1" viewBox="0 0 374 579" width="374px" zoomAndPan="magnify"><defs/><g><rect fill="#1B1B1B" height="579" style="stroke:none;stroke-width:1;" width="374" x="0" y="0"/><!--class RendererStyle--><g class="entity" data-entity="RendererStyle" data-source-line="1" data-uid="ent0002" id="entity_RendererStyle"><rect fill="#313139" height="64.2969" rx="2.5" ry="2.5" style="stroke:#E7E7E7;stroke-width:0.5;" width="182.9326" x="184.81" y="7"/><ellipse cx="222.7284" cy="23" fill="#352866" rx="11" ry="11" style="stroke:#E7E7E7;stroke-width:1;"/><path d="M218.6502,18.7656 L218.6502,16.6094 L226.0409,16.6094 L226.0409,18.7656 L223.5721,18.7656 L223.5721,26.8438 L226.0409,26.8438 L226.0409,29 L218.6502,29 L218.6502,26.8438 L221.119,26.8438 L221.119,18.7656 L218.6502,18.7656 Z " fill="#FFFFFF"/><text fill="#FFFFFF" font-family="sans-serif" font-size="14" font-style="italic" lengthAdjust="spacing" textLength="100.0029" x="241.8213" y="27.8467">RendererStyle</text><line style="stroke:#E7E7E7;stroke-width:0.5;" x1="185.81" x2="366.7426" y1="39" y2="39"/><ellipse cx="195.81" cy="52.6484" fill="none" rx="3" ry="3" style="stroke:#038048;stroke-width:1;"/><text fill="#FFFFFF" font-family="sans-serif" font-size="14" lengthAdjust="spacing" textLength="156.9326" x="204.81" y="55.9951">renderStyle: StyleText</text><line style="stroke:#E7E7E7;stroke-width:0.5;" x1="185.81" x2="366.7426" y1="63.2969" y2="63.2969"/></g><!--class Renderer--><g class="entity" data-entity="Renderer" data-source-line="5" data-uid="ent0003" id="entity_Renderer"><rect fill="#313139" height="64.2969" rx="2.5" ry="2.5" style="stroke:#E7E7E7;stroke-width:0.5;" width="146.0254" x="203.27" y="132.3"/><ellipse cx="240.4039" cy="148.3" fill="#352866" rx="11" ry="11" style="stroke:#E7E7E7;stroke-width:1;"/><path d="M236.3258,144.0656 L236.3258,141.9094 L243.7164,141.9094 L243.7164,144.0656 L241.2477,144.0656 L241.2477,152.1438 L243.7164,152.1438 L243.7164,154.3 L236.3258,154.3 L236.3258,152.1438 L238.7946,152.1438 L238.7946,144.0656 L236.3258,144.0656 Z " fill="#FFFFFF"/><text fill="#FFFFFF" font-family="sans-serif" font-size="14" font-style="italic" lengthAdjust="spacing" textLength="64.8389" x="259.3226" y="153.1467">Renderer</text><line style="stroke:#E7E7E7;stroke-width:0.5;" x1="204.27" x2="348.2954" y1="164.3" y2="164.3"/><ellipse cx="214.27" cy="177.9484" fill="none" rx="3" ry="3" style="stroke:#038048;stroke-width:1;"/><text fill="#FFFFFF" font-family="sans-serif" font-size="14" lengthAdjust="spacing" textLength="120.0254" x="223.27" y="181.2951">render: MainText</text><line style="stroke:#E7E7E7;stroke-width:0.5;" x1="204.27" x2="348.2954" y1="188.5969" y2="188.5969"/></g><!--class Content--><g class="entity" data-entity="Content" data-source-line="9" data-uid="ent0004" id="entity_Content"><rect fill="#313139" height="80.5938" rx="2.5" ry="2.5" style="stroke:#E7E7E7;stroke-width:0.5;" width="262.5576" x="7" y="257.6"/><ellipse cx="106.1895" cy="273.6" fill="#352866" rx="11" ry="11" style="stroke:#E7E7E7;stroke-width:1;"/><path d="M102.1113,269.3656 L102.1113,267.2094 L109.502,267.2094 L109.502,269.3656 L107.0332,269.3656 L107.0332,277.4438 L109.502,277.4438 L109.502,279.6 L102.1113,279.6 L102.1113,277.4438 L104.5801,277.4438 L104.5801,269.3656 L102.1113,269.3656 Z " fill="#FFFFFF"/><text fill="#FFFFFF" font-family="sans-serif" font-size="14" font-style="italic" lengthAdjust="spacing" textLength="55.6787" x="126.6895" y="278.4467">Content</text><line style="stroke:#E7E7E7;stroke-width:0.5;" x1="8" x2="268.5576" y1="289.6" y2="289.6"/><ellipse cx="18" cy="303.2484" fill="none" rx="3" ry="3" style="stroke:#038048;stroke-width:1;"/><text fill="#FFFFFF" font-family="sans-serif" font-size="14" lengthAdjust="spacing" textLength="137.0879" x="27" y="306.5951">title: Optional[Title]</text><ellipse cx="18" cy="319.5453" fill="none" rx="3" ry="3" style="stroke:#038048;stroke-width:1;"/><text fill="#FFFFFF" font-family="sans-serif" font-size="14" lengthAdjust="spacing" textLength="236.5576" x="27" y="322.892">layerElement: Seq[LayerElement]</text><line style="stroke:#E7E7E7;stroke-width:0.5;" x1="8" x2="268.5576" y1="330.1938" y2="330.1938"/></g><!--class LayerElement--><g class="entity" data-entity="LayerElement" data-source-line="14" data-uid="ent0005" id="entity_LayerElement"><rect fill="#313139" height="48" rx="2.5" ry="2.5" style="stroke:#E7E7E7;stroke-width:0.5;" width="128.9951" x="229.78" y="415.19"/><ellipse cx="244.78" cy="431.19" fill="#352866" rx="11" ry="11" style="stroke:#E7E7E7;stroke-width:1;"/><path d="M240.7019,426.9556 L240.7019,424.7994 L248.0925,424.7994 L248.0925,426.9556 L245.6238,426.9556 L245.6238,435.0338 L248.0925,435.0338 L248.0925,437.19 L240.7019,437.19 L240.7019,435.0338 L243.1706,435.0338 L243.1706,426.9556 L240.7019,426.9556 Z " fill="#FFFFFF"/><text fill="#FFFFFF" font-family="sans-serif" font-size="14" font-style="italic" lengthAdjust="spacing" textLength="96.9951" x="258.78" y="436.0367">LayerElement</text><line style="stroke:#E7E7E7;stroke-width:0.5;" x1="230.78" x2="357.7751" y1="447.19" y2="447.19"/><line style="stroke:#E7E7E7;stroke-width:0.5;" x1="230.78" x2="357.7751" y1="455.19" y2="455.19"/></g><!--class Title--><g class="entity" data-entity="Title" data-source-line="17" data-uid="ent0006" id="entity_Title"><rect fill="#313139" height="48" rx="2.5" ry="2.5" style="stroke:#E7E7E7;stroke-width:0.5;" width="62.4336" x="127.06" y="524.19"/><ellipse cx="142.06" cy="540.19" fill="#2E5233" rx="11" ry="11" style="stroke:#E7E7E7;stroke-width:1;"/><path d="M145.0288,545.8306 Q144.4506,546.1275 143.81,546.2681 Q143.1694,546.4244 142.4663,546.4244 Q139.9663,546.4244 138.6381,544.7838 Q137.3256,543.1275 137.3256,540.0025 Q137.3256,536.8775 138.6381,535.2213 Q139.9663,533.565 142.4663,533.565 Q143.1694,533.565 143.81,533.7213 Q144.4663,533.8775 145.0288,534.1744 L145.0288,536.8931 Q144.4038,536.315 143.81,536.0494 Q143.2163,535.7681 142.5913,535.7681 Q141.2475,535.7681 140.56,536.8463 Q139.8725,537.9088 139.8725,540.0025 Q139.8725,542.0963 140.56,543.1744 Q141.2475,544.2369 142.5913,544.2369 Q143.2163,544.2369 143.81,543.9713 Q144.4038,543.69 145.0288,543.1119 L145.0288,545.8306 Z " fill="#FFFFFF"/><text fill="#FFFFFF" font-family="sans-serif" font-size="14" lengthAdjust="spacing" textLength="30.4336" x="156.06" y="545.0367">Title</text><line style="stroke:#E7E7E7;stroke-width:0.5;" x1="128.06" x2="188.4936" y1="556.19" y2="556.19"/><line style="stroke:#E7E7E7;stroke-width:0.5;" x1="128.06" x2="188.4936" y1="564.19" y2="564.19"/></g><!--reverse link RendererStyle to Renderer--><g class="link" data-entity-1="RendererStyle" data-entity-2="Renderer" data-source-line="20" data-uid="lnk7" id="link_RendererStyle_Renderer"><path codeLine="20" d="M276.28,89.58 C276.28,108.13 276.28,113.53 276.28,132.07" fill="none" id="RendererStyle-backto-Renderer" style="stroke:#E7E7E7;stroke-width:1;stroke-dasharray:7,7;"/><polygon fill="none" points="276.28,71.58,270.28,89.58,282.28,89.58,276.28,71.58" style="stroke:#E7E7E7;stroke-width:1;"/></g><!--reverse link Renderer to Content--><g class="link" data-entity-1="Renderer" data-entity-2="Content" data-source-line="21" data-uid="lnk8" id="link_Renderer_Content"><path codeLine="21" d="M230.1901,209.3486 C211.2201,227.4286 200.24,237.88 179.97,257.18" fill="none" id="Renderer-backto-Content" style="stroke:#E7E7E7;stroke-width:1;stroke-dasharray:7,7;"/><polygon fill="none" points="243.22,196.93,226.0506,205.0053,234.3296,213.6919,243.22,196.93" style="stroke:#E7E7E7;stroke-width:1;"/></g><!--reverse link Renderer to LayerElement--><g class="link" data-entity-1="Renderer" data-entity-2="LayerElement" data-source-line="22" data-uid="lnk9" id="link_Renderer_LayerElement"><path codeLine="22" d="M286.4955,214.6832 C294.8555,257.2932 304.07,317.95 300.28,385.19 C299.73,394.9 298.62,405.56 297.51,414.76" fill="none" id="Renderer-backto-LayerElement" style="stroke:#E7E7E7;stroke-width:1;stroke-dasharray:7,7;"/><polygon fill="none" points="283.03,197.02,280.6077,215.8384,292.3832,213.5281,283.03,197.02" style="stroke:#E7E7E7;stroke-width:1;"/></g><!--reverse link LayerElement to Title--><g class="link" data-entity-1="LayerElement" data-entity-2="Title" data-source-line="23" data-uid="lnk10" id="link_LayerElement_Title"><path codeLine="23" d="M250.2847,474.8015 C227.6147,492.6415 210.71,505.94 188.05,523.76" fill="none" id="LayerElement-backto-Title" style="stroke:#E7E7E7;stroke-width:1;stroke-dasharray:7,7;"/><polygon fill="none" points="264.43,463.67,246.5742,470.0864,253.9952,479.5166,264.43,463.67" style="stroke:#E7E7E7;stroke-width:1;"/></g><!--link Content to LayerElement--><g class="link" data-entity-1="Content" data-entity-2="LayerElement" data-source-line="25" data-uid="lnk11" id="link_Content_LayerElement"><path codeLine="25" d="M182.56,338.44 C210.13,363.05 240.1751,389.8731 263.4851,410.6931" fill="none" id="Content-to-LayerElement" style="stroke:#E7E7E7;stroke-width:1;"/><polygon fill="#E7E7E7" points="267.96,414.69,263.9122,405.7114,264.2309,411.3593,258.583,411.6779,267.96,414.69" style="stroke:#E7E7E7;stroke-width:1;"/><text fill="#FFFFFF" font-family="sans-serif" font-size="13" lengthAdjust="spacing" textLength="55.0278" x="236.28" y="381.2569">contains</text></g><!--link Content to Title--><g class="link" data-entity-1="Content" data-entity-2="Title" data-source-line="26" data-uid="lnk12" id="link_Content_Title"><path codeLine="26" d="M141.47,338.51 C145.68,390.81 152.4893,475.2493 155.9093,517.7993" fill="none" id="Content-to-Title" style="stroke:#E7E7E7;stroke-width:1;"/><polygon fill="#E7E7E7" points="156.39,523.78,159.6561,514.4885,155.9894,518.7961,151.6818,515.1294,156.39,523.78" style="stroke:#E7E7E7;stroke-width:1;"/><text fill="#FFFFFF" font-family="sans-serif" font-size="13" lengthAdjust="spacing" textLength="55.0278" x="152.28" y="443.7569">contains</text></g><!--SRC=[PL113e8m4BplA_Pku074U37UD2RAZN1eS4sQrABj7Y3gtrrQGIgzj9sPdPbMMoPtLGtXYUo57BapzuRm2IXhvG8Oe0B3LbB7y0RGYy5qfi23qdQfthPoj3oAMVDWVRopRgqoLJdSwyWPrPFR6Rg9NjBfKUrdI9twpYan5wunodiCXX58NxX-vVdKVU8Y_2tvXyuZ8CaBT4W261-OPPkqL86DKF8fFj74WZ_o0m00]--></g></svg>