<svg xmlns="http://www.w3.org/2000/svg" xmlns:xlink="http://www.w3.org/1999/xlink" contentStyleType="text/css" data-diagram-type="CLASS" height="546px" preserveAspectRatio="none" style="width:766px;height:546px;background:#1B1B1B;" version="1.1" viewBox="0 0 766 546" width="766px" zoomAndPan="magnify"><defs/><g><rect fill="#1B1B1B" height="546" style="stroke:none;stroke-width:1;" width="766" x="0" y="0"/><!--class LayerElement--><g class="entity" data-entity="LayerElement" data-source-line="1" data-uid="ent0002" id="entity_LayerElement"><rect fill="#313139" height="48" rx="2.5" ry="2.5" style="stroke:#E7E7E7;stroke-width:0.5;" width="128.9951" x="316.72" y="366.29"/><ellipse cx="331.72" cy="382.29" fill="#352866" rx="11" ry="11" style="stroke:#E7E7E7;stroke-width:1;"/><path d="M327.6419,378.0556 L327.6419,375.8994 L335.0325,375.8994 L335.0325,378.0556 L332.5638,378.0556 L332.5638,386.1338 L335.0325,386.1338 L335.0325,388.29 L327.6419,388.29 L327.6419,386.1338 L330.1106,386.1338 L330.1106,378.0556 L327.6419,378.0556 Z " fill="#FFFFFF"/><text fill="#FFFFFF" font-family="sans-serif" font-size="14" font-style="italic" lengthAdjust="spacing" textLength="96.9951" x="345.72" y="387.1367">LayerElement</text><line style="stroke:#E7E7E7;stroke-width:0.5;" x1="317.72" x2="444.7151" y1="398.29" y2="398.29"/><line style="stroke:#E7E7E7;stroke-width:0.5;" x1="317.72" x2="444.7151" y1="406.29" y2="406.29"/></g><!--class ListElement--><g class="entity" data-entity="ListElement" data-source-line="3" data-uid="ent0003" id="entity_ListElement"><rect fill="#313139" height="48" rx="2.5" ry="2.5" style="stroke:#E7E7E7;stroke-width:0.5;" width="114.4346" x="7" y="249.14"/><ellipse cx="22" cy="265.14" fill="#352866" rx="11" ry="11" style="stroke:#E7E7E7;stroke-width:1;"/><path d="M17.9219,260.9056 L17.9219,258.7494 L25.3125,258.7494 L25.3125,260.9056 L22.8438,260.9056 L22.8438,268.9838 L25.3125,268.9838 L25.3125,271.14 L17.9219,271.14 L17.9219,268.9838 L20.3906,268.9838 L20.3906,260.9056 L17.9219,260.9056 Z " fill="#FFFFFF"/><text fill="#FFFFFF" font-family="sans-serif" font-size="14" font-style="italic" lengthAdjust="spacing" textLength="82.4346" x="36" y="269.9867">ListElement</text><line style="stroke:#E7E7E7;stroke-width:0.5;" x1="8" x2="120.4346" y1="281.14" y2="281.14"/><line style="stroke:#E7E7E7;stroke-width:0.5;" x1="8" x2="120.4346" y1="289.14" y2="289.14"/></g><!--class Section--><g class="entity" data-entity="Section" data-source-line="5" data-uid="ent0004" id="entity_Section"><rect fill="#313139" height="48" rx="2.5" ry="2.5" style="stroke:#E7E7E7;stroke-width:0.5;" width="84.0146" x="156.21" y="249.14"/><ellipse cx="171.21" cy="265.14" fill="#352866" rx="11" ry="11" style="stroke:#E7E7E7;stroke-width:1;"/><path d="M167.1319,260.9056 L167.1319,258.7494 L174.5225,258.7494 L174.5225,260.9056 L172.0538,260.9056 L172.0538,268.9838 L174.5225,268.9838 L174.5225,271.14 L167.1319,271.14 L167.1319,268.9838 L169.6006,268.9838 L169.6006,260.9056 L167.1319,260.9056 Z " fill="#FFFFFF"/><text fill="#FFFFFF" font-family="sans-serif" font-size="14" font-style="italic" lengthAdjust="spacing" textLength="52.0146" x="185.21" y="269.9867">Section</text><line style="stroke:#E7E7E7;stroke-width:0.5;" x1="157.21" x2="239.2246" y1="281.14" y2="281.14"/><line style="stroke:#E7E7E7;stroke-width:0.5;" x1="157.21" x2="239.2246" y1="289.14" y2="289.14"/></g><!--class SubSection--><g class="entity" data-entity="SubSection" data-source-line="6" data-uid="ent0005" id="entity_SubSection"><rect fill="#313139" height="48" rx="2.5" ry="2.5" style="stroke:#E7E7E7;stroke-width:0.5;" width="110.6611" x="274.89" y="249.14"/><ellipse cx="289.89" cy="265.14" fill="#352866" rx="11" ry="11" style="stroke:#E7E7E7;stroke-width:1;"/><path d="M285.8119,260.9056 L285.8119,258.7494 L293.2025,258.7494 L293.2025,260.9056 L290.7338,260.9056 L290.7338,268.9838 L293.2025,268.9838 L293.2025,271.14 L285.8119,271.14 L285.8119,268.9838 L288.2806,268.9838 L288.2806,260.9056 L285.8119,260.9056 Z " fill="#FFFFFF"/><text fill="#FFFFFF" font-family="sans-serif" font-size="14" font-style="italic" lengthAdjust="spacing" textLength="78.6611" x="303.89" y="269.9867">SubSection</text><line style="stroke:#E7E7E7;stroke-width:0.5;" x1="275.89" x2="384.5511" y1="281.14" y2="281.14"/><line style="stroke:#E7E7E7;stroke-width:0.5;" x1="275.89" x2="384.5511" y1="289.14" y2="289.14"/></g><!--class Renderer--><g class="entity" data-entity="Renderer" data-source-line="8" data-uid="ent0006" id="entity_Renderer"><rect fill="#313139" height="64.2969" rx="2.5" ry="2.5" style="stroke:#E7E7E7;stroke-width:0.5;" width="96.8389" x="332.8" y="475.29"/><ellipse cx="347.8" cy="491.29" fill="#352866" rx="11" ry="11" style="stroke:#E7E7E7;stroke-width:1;"/><path d="M343.7219,487.0556 L343.7219,484.8994 L351.1125,484.8994 L351.1125,487.0556 L348.6438,487.0556 L348.6438,495.1338 L351.1125,495.1338 L351.1125,497.29 L343.7219,497.29 L343.7219,495.1338 L346.1906,495.1338 L346.1906,487.0556 L343.7219,487.0556 Z " fill="#FFFFFF"/><text fill="#FFFFFF" font-family="sans-serif" font-size="14" font-style="italic" lengthAdjust="spacing" textLength="64.8389" x="361.8" y="496.1367">Renderer</text><line style="stroke:#E7E7E7;stroke-width:0.5;" x1="333.8" x2="428.6389" y1="507.29" y2="507.29"/><text fill="#FFFFFF" font-family="sans-serif" font-size="14" lengthAdjust="spacing" textLength="46.498" x="338.8" y="524.2851">render</text><line style="stroke:#E7E7E7;stroke-width:0.5;" x1="333.8" x2="428.6389" y1="531.5869" y2="531.5869"/></g><!--class CaptionElement--><g class="entity" data-entity="CaptionElement" data-source-line="12" data-uid="ent0007" id="entity_CaptionElement"><rect fill="#313139" height="64.2969" rx="2.5" ry="2.5" style="stroke:#E7E7E7;stroke-width:0.5;" width="144.0205" x="420.21" y="241"/><ellipse cx="435.21" cy="257" fill="#352866" rx="11" ry="11" style="stroke:#E7E7E7;stroke-width:1;"/><path d="M431.1319,252.7656 L431.1319,250.6094 L438.5225,250.6094 L438.5225,252.7656 L436.0538,252.7656 L436.0538,260.8438 L438.5225,260.8438 L438.5225,263 L431.1319,263 L431.1319,260.8438 L433.6006,260.8438 L433.6006,252.7656 L431.1319,252.7656 Z " fill="#FFFFFF"/><text fill="#FFFFFF" font-family="sans-serif" font-size="14" font-style="italic" lengthAdjust="spacing" textLength="112.0205" x="449.21" y="261.8467">CaptionElement</text><line style="stroke:#E7E7E7;stroke-width:0.5;" x1="421.21" x2="563.2305" y1="273" y2="273"/><text fill="#FFFFFF" font-family="sans-serif" font-size="14" lengthAdjust="spacing" textLength="102.9287" x="426.21" y="289.9951">caption: String</text><line style="stroke:#E7E7E7;stroke-width:0.5;" x1="421.21" x2="563.2305" y1="297.2969" y2="297.2969"/></g><!--class Text--><g class="entity" data-entity="Text" data-source-line="22" data-uid="ent0013" id="entity_Text"><rect fill="#313139" height="48" rx="2.5" ry="2.5" style="stroke:#E7E7E7;stroke-width:0.5;" width="62.9395" x="598.75" y="249.14"/><ellipse cx="613.75" cy="265.14" fill="#2E5233" rx="11" ry="11" style="stroke:#E7E7E7;stroke-width:1;"/><path d="M616.7188,270.7806 Q616.1406,271.0775 615.5,271.2181 Q614.8594,271.3744 614.1563,271.3744 Q611.6563,271.3744 610.3281,269.7338 Q609.0156,268.0775 609.0156,264.9525 Q609.0156,261.8275 610.3281,260.1713 Q611.6563,258.515 614.1563,258.515 Q614.8594,258.515 615.5,258.6713 Q616.1563,258.8275 616.7188,259.1244 L616.7188,261.8431 Q616.0938,261.265 615.5,260.9994 Q614.9063,260.7181 614.2813,260.7181 Q612.9375,260.7181 612.25,261.7963 Q611.5625,262.8588 611.5625,264.9525 Q611.5625,267.0463 612.25,268.1244 Q612.9375,269.1869 614.2813,269.1869 Q614.9063,269.1869 615.5,268.9213 Q616.0938,268.64 616.7188,268.0619 L616.7188,270.7806 Z " fill="#FFFFFF"/><text fill="#FFFFFF" font-family="sans-serif" font-size="14" lengthAdjust="spacing" textLength="30.9395" x="627.75" y="269.9867">Text</text><line style="stroke:#E7E7E7;stroke-width:0.5;" x1="599.75" x2="660.6895" y1="281.14" y2="281.14"/><line style="stroke:#E7E7E7;stroke-width:0.5;" x1="599.75" x2="660.6895" y1="289.14" y2="289.14"/></g><!--class Title--><g class="entity" data-entity="Title" data-source-line="23" data-uid="ent0014" id="entity_Title"><rect fill="#313139" height="48" rx="2.5" ry="2.5" style="stroke:#E7E7E7;stroke-width:0.5;" width="62.4336" x="697" y="249.14"/><ellipse cx="712" cy="265.14" fill="#2E5233" rx="11" ry="11" style="stroke:#E7E7E7;stroke-width:1;"/><path d="M714.9688,270.7806 Q714.3906,271.0775 713.75,271.2181 Q713.1094,271.3744 712.4063,271.3744 Q709.9063,271.3744 708.5781,269.7338 Q707.2656,268.0775 707.2656,264.9525 Q707.2656,261.8275 708.5781,260.1713 Q709.9063,258.515 712.4063,258.515 Q713.1094,258.515 713.75,258.6713 Q714.4063,258.8275 714.9688,259.1244 L714.9688,261.8431 Q714.3438,261.265 713.75,260.9994 Q713.1563,260.7181 712.5313,260.7181 Q711.1875,260.7181 710.5,261.7963 Q709.8125,262.8588 709.8125,264.9525 Q709.8125,267.0463 710.5,268.1244 Q711.1875,269.1869 712.5313,269.1869 Q713.1563,269.1869 713.75,268.9213 Q714.3438,268.64 714.9688,268.0619 L714.9688,270.7806 Z " fill="#FFFFFF"/><text fill="#FFFFFF" font-family="sans-serif" font-size="14" lengthAdjust="spacing" textLength="30.4336" x="726" y="269.9867">Title</text><line style="stroke:#E7E7E7;stroke-width:0.5;" x1="698" x2="758.4336" y1="281.14" y2="281.14"/><line style="stroke:#E7E7E7;stroke-width:0.5;" x1="698" x2="758.4336" y1="289.14" y2="289.14"/></g><!--class Item--><g class="entity" data-entity="Item" data-source-line="24" data-uid="ent0015" id="entity_Item"><rect fill="#313139" height="48" rx="2.5" ry="2.5" style="stroke:#E7E7E7;stroke-width:0.5;" width="63.8691" x="75.28" y="132"/><ellipse cx="90.28" cy="148" fill="#2E5233" rx="11" ry="11" style="stroke:#E7E7E7;stroke-width:1;"/><path d="M93.2488,153.6406 Q92.6706,153.9375 92.03,154.0781 Q91.3894,154.2344 90.6863,154.2344 Q88.1863,154.2344 86.8581,152.5938 Q85.5456,150.9375 85.5456,147.8125 Q85.5456,144.6875 86.8581,143.0313 Q88.1863,141.375 90.6863,141.375 Q91.3894,141.375 92.03,141.5313 Q92.6863,141.6875 93.2488,141.9844 L93.2488,144.7031 Q92.6238,144.125 92.03,143.8594 Q91.4363,143.5781 90.8113,143.5781 Q89.4675,143.5781 88.78,144.6563 Q88.0925,145.7188 88.0925,147.8125 Q88.0925,149.9063 88.78,150.9844 Q89.4675,152.0469 90.8113,152.0469 Q91.4363,152.0469 92.03,151.7813 Q92.6238,151.5 93.2488,150.9219 L93.2488,153.6406 Z " fill="#FFFFFF"/><text fill="#FFFFFF" font-family="sans-serif" font-size="14" lengthAdjust="spacing" textLength="31.8691" x="104.28" y="152.8467">Item</text><line style="stroke:#E7E7E7;stroke-width:0.5;" x1="76.28" x2="138.1491" y1="164" y2="164"/><line style="stroke:#E7E7E7;stroke-width:0.5;" x1="76.28" x2="138.1491" y1="172" y2="172"/></g><!--class Image--><g class="entity" data-entity="Image" data-source-line="25" data-uid="ent0016" id="entity_Image"><rect fill="#313139" height="48" rx="2.5" ry="2.5" style="stroke:#E7E7E7;stroke-width:0.5;" width="75.8457" x="400.29" y="132"/><ellipse cx="415.29" cy="148" fill="#2E5233" rx="11" ry="11" style="stroke:#E7E7E7;stroke-width:1;"/><path d="M418.2588,153.6406 Q417.6806,153.9375 417.04,154.0781 Q416.3994,154.2344 415.6963,154.2344 Q413.1963,154.2344 411.8681,152.5938 Q410.5556,150.9375 410.5556,147.8125 Q410.5556,144.6875 411.8681,143.0313 Q413.1963,141.375 415.6963,141.375 Q416.3994,141.375 417.04,141.5313 Q417.6963,141.6875 418.2588,141.9844 L418.2588,144.7031 Q417.6338,144.125 417.04,143.8594 Q416.4463,143.5781 415.8213,143.5781 Q414.4775,143.5781 413.79,144.6563 Q413.1025,145.7188 413.1025,147.8125 Q413.1025,149.9063 413.79,150.9844 Q414.4775,152.0469 415.8213,152.0469 Q416.4463,152.0469 417.04,151.7813 Q417.6338,151.5 418.2588,150.9219 L418.2588,153.6406 Z " fill="#FFFFFF"/><text fill="#FFFFFF" font-family="sans-serif" font-size="14" lengthAdjust="spacing" textLength="43.8457" x="429.29" y="152.8467">Image</text><line style="stroke:#E7E7E7;stroke-width:0.5;" x1="401.29" x2="475.1357" y1="164" y2="164"/><line style="stroke:#E7E7E7;stroke-width:0.5;" x1="401.29" x2="475.1357" y1="172" y2="172"/></g><!--class Table--><g class="entity" data-entity="Table" data-source-line="26" data-uid="ent0017" id="entity_Table"><rect fill="#313139" height="48" rx="2.5" ry="2.5" style="stroke:#E7E7E7;stroke-width:0.5;" width="70.5205" x="510.96" y="132"/><ellipse cx="525.96" cy="148" fill="#2E5233" rx="11" ry="11" style="stroke:#E7E7E7;stroke-width:1;"/><path d="M528.9288,153.6406 Q528.3506,153.9375 527.71,154.0781 Q527.0694,154.2344 526.3663,154.2344 Q523.8663,154.2344 522.5381,152.5938 Q521.2256,150.9375 521.2256,147.8125 Q521.2256,144.6875 522.5381,143.0313 Q523.8663,141.375 526.3663,141.375 Q527.0694,141.375 527.71,141.5313 Q528.3663,141.6875 528.9288,141.9844 L528.9288,144.7031 Q528.3038,144.125 527.71,143.8594 Q527.1163,143.5781 526.4913,143.5781 Q525.1475,143.5781 524.46,144.6563 Q523.7725,145.7188 523.7725,147.8125 Q523.7725,149.9063 524.46,150.9844 Q525.1475,152.0469 526.4913,152.0469 Q527.1163,152.0469 527.71,151.7813 Q528.3038,151.5 528.9288,150.9219 L528.9288,153.6406 Z " fill="#FFFFFF"/><text fill="#FFFFFF" font-family="sans-serif" font-size="14" lengthAdjust="spacing" textLength="38.5205" x="539.96" y="152.8467">Table</text><line style="stroke:#E7E7E7;stroke-width:0.5;" x1="511.96" x2="580.4805" y1="164" y2="164"/><line style="stroke:#E7E7E7;stroke-width:0.5;" x1="511.96" x2="580.4805" y1="172" y2="172"/></g><!--class Listing--><g class="entity" data-entity="Listing" data-source-line="27" data-uid="ent0018" id="entity_Listing"><rect fill="#313139" height="48" rx="2.5" ry="2.5" style="stroke:#E7E7E7;stroke-width:0.5;" width="78.1221" x="12.16" y="7"/><ellipse cx="27.16" cy="23" fill="#2E5233" rx="11" ry="11" style="stroke:#E7E7E7;stroke-width:1;"/><path d="M30.1288,28.6406 Q29.5506,28.9375 28.91,29.0781 Q28.2694,29.2344 27.5663,29.2344 Q25.0663,29.2344 23.7381,27.5938 Q22.4256,25.9375 22.4256,22.8125 Q22.4256,19.6875 23.7381,18.0313 Q25.0663,16.375 27.5663,16.375 Q28.2694,16.375 28.91,16.5313 Q29.5663,16.6875 30.1288,16.9844 L30.1288,19.7031 Q29.5038,19.125 28.91,18.8594 Q28.3163,18.5781 27.6913,18.5781 Q26.3475,18.5781 25.66,19.6563 Q24.9725,20.7188 24.9725,22.8125 Q24.9725,24.9063 25.66,25.9844 Q26.3475,27.0469 27.6913,27.0469 Q28.3163,27.0469 28.91,26.7813 Q29.5038,26.5 30.1288,25.9219 L30.1288,28.6406 Z " fill="#FFFFFF"/><text fill="#FFFFFF" font-family="sans-serif" font-size="14" lengthAdjust="spacing" textLength="46.1221" x="41.16" y="27.8467">Listing</text><line style="stroke:#E7E7E7;stroke-width:0.5;" x1="13.16" x2="89.2821" y1="39" y2="39"/><line style="stroke:#E7E7E7;stroke-width:0.5;" x1="13.16" x2="89.2821" y1="47" y2="47"/></g><!--link CaptionElement to LayerElement--><g class="link" data-entity-1="CaptionElement" data-entity-2="LayerElement" data-source-line="16" data-uid="lnk8" id="link_CaptionElement_LayerElement"><path codeLine="16" d="M461.89,305.61 C443.53,324.65 433.0046,335.5729 416.2546,352.9429" fill="none" id="CaptionElement-to-LayerElement" style="stroke:#E7E7E7;stroke-width:1;stroke-dasharray:7,7;"/><polygon fill="none" points="403.76,365.9,420.5736,357.1078,411.9356,348.7781,403.76,365.9" style="stroke:#E7E7E7;stroke-width:1;"/></g><!--link ListElement to LayerElement--><g class="link" data-entity-1="ListElement" data-entity-2="LayerElement" data-source-line="17" data-uid="lnk9" id="link_ListElement_LayerElement"><path codeLine="17" d="M118.61,297.52 C125.19,300.2 131.84,302.85 138.22,305.29 C198.04,328.19 250.0678,346.1356 299.2578,362.4756" fill="none" id="ListElement-to-LayerElement" style="stroke:#E7E7E7;stroke-width:1;stroke-dasharray:7,7;"/><polygon fill="none" points="316.34,368.15,301.1493,356.7815,297.3663,368.1697,316.34,368.15" style="stroke:#E7E7E7;stroke-width:1;"/></g><!--link LayerElement to Renderer--><g class="link" data-entity-1="LayerElement" data-entity-2="Renderer" data-source-line="18" data-uid="lnk10" id="link_LayerElement_Renderer"><path codeLine="18" d="M381.22,414.6 C381.22,431.94 381.22,437.82 381.22,456.88" fill="none" id="LayerElement-to-Renderer" style="stroke:#E7E7E7;stroke-width:1;stroke-dasharray:7,7;"/><polygon fill="none" points="381.22,474.88,387.22,456.88,375.22,456.88,381.22,474.88" style="stroke:#E7E7E7;stroke-width:1;"/></g><!--link Section to LayerElement--><g class="link" data-entity-1="Section" data-entity-2="LayerElement" data-source-line="19" data-uid="lnk11" id="link_Section_LayerElement"><path codeLine="19" d="M235.25,297.45 C266.9,317.36 296.9752,336.2834 328.6952,356.2434" fill="none" id="Section-to-LayerElement" style="stroke:#E7E7E7;stroke-width:1;stroke-dasharray:7,7;"/><polygon fill="none" points="343.93,365.83,331.8908,351.1652,325.4997,361.3217,343.93,365.83" style="stroke:#E7E7E7;stroke-width:1;"/></g><!--link SubSection to LayerElement--><g class="link" data-entity-1="SubSection" data-entity-2="LayerElement" data-source-line="20" data-uid="lnk12" id="link_SubSection_LayerElement"><path codeLine="20" d="M340.54,297.45 C349.39,317.42 354.784,329.6005 363.624,349.5705" fill="none" id="SubSection-to-LayerElement" style="stroke:#E7E7E7;stroke-width:1;stroke-dasharray:7,7;"/><polygon fill="none" points="370.91,366.03,369.1105,347.1419,358.1375,351.9992,370.91,366.03" style="stroke:#E7E7E7;stroke-width:1;"/></g><!--link Image to CaptionElement--><g class="link" data-entity-1="Image" data-entity-2="CaptionElement" data-source-line="29" data-uid="lnk19" id="link_Image_CaptionElement"><path codeLine="29" d="M449.14,180.3 C457.28,197.65 460.8362,205.2236 469.7762,224.2836" fill="none" id="Image-to-CaptionElement" style="stroke:#E7E7E7;stroke-width:1;stroke-dasharray:7,7;"/><polygon fill="none" points="477.42,240.58,475.2084,221.7357,464.3441,226.8315,477.42,240.58" style="stroke:#E7E7E7;stroke-width:1;"/></g><!--link Table to CaptionElement--><g class="link" data-entity-1="Table" data-entity-2="CaptionElement" data-source-line="30" data-uid="lnk20" id="link_Table_CaptionElement"><path codeLine="30" d="M535.29,180.3 C527.15,197.65 523.6038,205.2236 514.6638,224.2836" fill="none" id="Table-to-CaptionElement" style="stroke:#E7E7E7;stroke-width:1;stroke-dasharray:7,7;"/><polygon fill="none" points="507.02,240.58,520.0959,226.8315,509.2316,221.7357,507.02,240.58" style="stroke:#E7E7E7;stroke-width:1;"/></g><!--link Title to LayerElement--><g class="link" data-entity-1="Title" data-entity-2="LayerElement" data-source-line="31" data-uid="lnk21" id="link_Title_LayerElement"><path codeLine="31" d="M696.54,296.14 C690.93,299.5 685.01,302.7 679.22,305.29 C602.3,339.69 525.4484,359.6789 463.7784,372.9289" fill="none" id="Title-to-LayerElement" style="stroke:#E7E7E7;stroke-width:1;stroke-dasharray:7,7;"/><polygon fill="none" points="446.18,376.71,465.0388,378.7951,462.518,367.0628,446.18,376.71" style="stroke:#E7E7E7;stroke-width:1;"/></g><!--link Text to LayerElement--><g class="link" data-entity-1="Text" data-entity-2="LayerElement" data-source-line="32" data-uid="lnk22" id="link_Text_LayerElement"><path codeLine="32" d="M598.42,295.91 C593.11,299.21 587.58,302.46 582.22,305.29 C537.9,328.69 502.4053,343.8955 462.2753,359.3655" fill="none" id="Text-to-LayerElement" style="stroke:#E7E7E7;stroke-width:1;stroke-dasharray:7,7;"/><polygon fill="none" points="445.48,365.84,464.4334,364.9639,460.1171,353.7671,445.48,365.84" style="stroke:#E7E7E7;stroke-width:1;"/></g><!--link Item to ListElement--><g class="link" data-entity-1="Item" data-entity-2="ListElement" data-source-line="33" data-uid="lnk23" id="link_Item_ListElement"><path codeLine="33" d="M98.52,180.3 C91.06,200.28 86.6515,212.0453 79.2015,232.0153" fill="none" id="Item-to-ListElement" style="stroke:#E7E7E7;stroke-width:1;stroke-dasharray:7,7;"/><polygon fill="none" points="72.91,248.88,84.8231,234.1125,73.58,229.9182,72.91,248.88" style="stroke:#E7E7E7;stroke-width:1;"/></g><!--link Listing to ListElement--><g class="link" data-entity-1="Listing" data-entity-2="ListElement" data-source-line="34" data-uid="lnk24" id="link_Listing_ListElement"><path codeLine="34" d="M52.19,55.33 C53.44,84.5 55.74,135.95 58.22,180 C59.53,203.37 60.0751,212.0917 61.3451,230.7117" fill="none" id="Listing-to-ListElement" style="stroke:#E7E7E7;stroke-width:1;stroke-dasharray:7,7;"/><polygon fill="none" points="62.57,248.67,67.3312,230.3034,55.359,231.12,62.57,248.67" style="stroke:#E7E7E7;stroke-width:1;"/></g><!--link Listing to Item--><g class="link" data-entity-1="Listing" data-entity-2="Item" data-source-line="36" data-uid="lnk25" id="link_Listing_Item"><path codeLine="36" d="M61.88,55.42 C71.85,77.31 84.1544,104.3391 94.1044,126.1991" fill="none" id="Listing-to-Item" style="stroke:#E7E7E7;stroke-width:1;"/><polygon fill="#E7E7E7" points="96.59,131.66,96.5021,121.8115,94.5186,127.1092,89.2209,125.1257,96.59,131.66" style="stroke:#E7E7E7;stroke-width:1;"/><text fill="#FFFFFF" font-family="sans-serif" font-size="13" lengthAdjust="spacing" textLength="55.0278" x="84.22" y="98.0669">contains</text></g><!--SRC=[RP513e8m44NtSugv01o01HlZmeILS85QHz84Ycd7HAFUNLfQBDhTx_z_CczIfPdCHKZ2HZp8x0SQIJE0MdribEMStv9aDUcDTJj5Dx6FfCzao3m1qNWzYtVQs8ch6mfRq1NbObNOib6wXxd_qohBLxsbJaXpQV9OuWW60JepzBqe4u8SXBNOqPsZL3nGq0UcCSfHzD7kn6cjEE3vE0JmZMN5zapm_NpYbcMm74_6TZp1Jduq8lm5Qr8KjRy5AvIJPg6q_G00]--></g></svg>