<svg xmlns="http://www.w3.org/2000/svg" xmlns:xlink="http://www.w3.org/1999/xlink" contentStyleType="text/css" data-diagram-type="CLASS" height="502px" preserveAspectRatio="none" style="width:287px;height:502px;background:#1B1B1B;" version="1.1" viewBox="0 0 287 502" width="287px" zoomAndPan="magnify"><defs/><g><rect fill="#1B1B1B" height="502" style="stroke:none;stroke-width:1;" width="287" x="0" y="0"/><!--class RendererStyle--><g class="entity" data-entity="RendererStyle" data-source-line="1" data-uid="ent0002" id="entity_RendererStyle"><rect fill="#313139" height="64.2969" rx="2.5" ry="2.5" style="stroke:#E7E7E7;stroke-width:0.5;" width="182.9326" x="97.8" y="7"/><ellipse cx="135.7184" cy="23" fill="#352866" rx="11" ry="11" style="stroke:#E7E7E7;stroke-width:1;"/><path d="M131.6402,18.7656 L131.6402,16.6094 L139.0309,16.6094 L139.0309,18.7656 L136.5621,18.7656 L136.5621,26.8438 L139.0309,26.8438 L139.0309,29 L131.6402,29 L131.6402,26.8438 L134.109,26.8438 L134.109,18.7656 L131.6402,18.7656 Z " fill="#FFFFFF"/><text fill="#FFFFFF" font-family="sans-serif" font-size="14" font-style="italic" lengthAdjust="spacing" textLength="100.0029" x="154.8113" y="27.8467">RendererStyle</text><line style="stroke:#E7E7E7;stroke-width:0.5;" x1="98.8" x2="279.7326" y1="39" y2="39"/><ellipse cx="108.8" cy="52.6484" fill="none" rx="3" ry="3" style="stroke:#038048;stroke-width:1;"/><text fill="#FFFFFF" font-family="sans-serif" font-size="14" lengthAdjust="spacing" textLength="156.9326" x="117.8" y="55.9951">renderStyle: StyleText</text><line style="stroke:#E7E7E7;stroke-width:0.5;" x1="98.8" x2="279.7326" y1="63.2969" y2="63.2969"/></g><!--class Renderer--><g class="entity" data-entity="Renderer" data-source-line="5" data-uid="ent0003" id="entity_Renderer"><rect fill="#313139" height="64.2969" rx="2.5" ry="2.5" style="stroke:#E7E7E7;stroke-width:0.5;" width="146.0254" x="47.25" y="132.3"/><ellipse cx="84.3839" cy="148.3" fill="#352866" rx="11" ry="11" style="stroke:#E7E7E7;stroke-width:1;"/><path d="M80.3058,144.0656 L80.3058,141.9094 L87.6964,141.9094 L87.6964,144.0656 L85.2277,144.0656 L85.2277,152.1437 L87.6964,152.1437 L87.6964,154.3 L80.3058,154.3 L80.3058,152.1437 L82.7746,152.1437 L82.7746,144.0656 L80.3058,144.0656 Z " fill="#FFFFFF"/><text fill="#FFFFFF" font-family="sans-serif" font-size="14" font-style="italic" lengthAdjust="spacing" textLength="64.8389" x="103.3026" y="153.1467">Renderer</text><line style="stroke:#E7E7E7;stroke-width:0.5;" x1="48.25" x2="192.2754" y1="164.3" y2="164.3"/><ellipse cx="58.25" cy="177.9484" fill="none" rx="3" ry="3" style="stroke:#038048;stroke-width:1;"/><text fill="#FFFFFF" font-family="sans-serif" font-size="14" lengthAdjust="spacing" textLength="120.0254" x="67.25" y="181.2951">render: MainText</text><line style="stroke:#E7E7E7;stroke-width:0.5;" x1="48.25" x2="192.2754" y1="188.5969" y2="188.5969"/></g><!--class Metadata--><g class="entity" data-entity="Metadata" data-source-line="9" data-uid="ent0004" id="entity_Metadata"><rect fill="#313139" height="113.1875" rx="2.5" ry="2.5" style="stroke:#E7E7E7;stroke-width:0.5;" width="192.5303" x="7" y="257.59"/><ellipse cx="65.8677" cy="273.59" fill="#352866" rx="11" ry="11" style="stroke:#E7E7E7;stroke-width:1;"/><path d="M61.7896,269.3556 L61.7896,267.1994 L69.1802,267.1994 L69.1802,269.3556 L66.7114,269.3556 L66.7114,277.4338 L69.1802,277.4338 L69.1802,279.59 L61.7896,279.59 L61.7896,277.4338 L64.2583,277.4338 L64.2583,269.3556 L61.7896,269.3556 Z " fill="#FFFFFF"/><text fill="#FFFFFF" font-family="sans-serif" font-size="14" font-style="italic" lengthAdjust="spacing" textLength="66.2949" x="86.3677" y="278.4367">Metadata</text><line style="stroke:#E7E7E7;stroke-width:0.5;" x1="8" x2="198.5303" y1="289.59" y2="289.59"/><ellipse cx="18" cy="303.2384" fill="none" rx="3" ry="3" style="stroke:#038048;stroke-width:1;"/><text fill="#FFFFFF" font-family="sans-serif" font-size="14" lengthAdjust="spacing" textLength="166.5303" x="27" y="306.5851">metatag: Seq[MetaTag]</text><ellipse cx="18" cy="319.5353" fill="none" rx="3" ry="3" style="stroke:#038048;stroke-width:1;"/><text fill="#FFFFFF" font-family="sans-serif" font-size="14" lengthAdjust="spacing" textLength="111.3232" x="27" y="322.882">style: MainStyle</text><ellipse cx="18" cy="335.8322" fill="none" rx="3" ry="3" style="stroke:#038048;stroke-width:1;"/><text fill="#FFFFFF" font-family="sans-serif" font-size="14" lengthAdjust="spacing" textLength="143.4385" x="27" y="339.1789">language: Language</text><ellipse cx="18" cy="352.1291" fill="none" rx="3" ry="3" style="stroke:#038048;stroke-width:1;"/><text fill="#FFFFFF" font-family="sans-serif" font-size="14" lengthAdjust="spacing" textLength="142.7822" x="27" y="355.4757">extention: Extention</text><line style="stroke:#E7E7E7;stroke-width:0.5;" x1="8" x2="198.5303" y1="362.7775" y2="362.7775"/></g><!--class MetaTag--><g class="entity" data-entity="MetaTag" data-source-line="16" data-uid="ent0005" id="entity_MetaTag"><rect fill="#313139" height="48" rx="2.5" ry="2.5" style="stroke:#E7E7E7;stroke-width:0.5;" width="92.7783" x="28.88" y="447.78"/><ellipse cx="43.88" cy="463.78" fill="#352866" rx="11" ry="11" style="stroke:#E7E7E7;stroke-width:1;"/><path d="M39.8019,459.5456 L39.8019,457.3894 L47.1925,457.3894 L47.1925,459.5456 L44.7237,459.5456 L44.7237,467.6238 L47.1925,467.6238 L47.1925,469.78 L39.8019,469.78 L39.8019,467.6238 L42.2706,467.6238 L42.2706,459.5456 L39.8019,459.5456 Z " fill="#FFFFFF"/><text fill="#FFFFFF" font-family="sans-serif" font-size="14" font-style="italic" lengthAdjust="spacing" textLength="60.7783" x="57.88" y="468.6267">MetaTag</text><line style="stroke:#E7E7E7;stroke-width:0.5;" x1="29.88" x2="120.6583" y1="479.78" y2="479.78"/><line style="stroke:#E7E7E7;stroke-width:0.5;" x1="29.88" x2="120.6583" y1="487.78" y2="487.78"/></g><!--class MainStyle--><g class="entity" data-entity="MainStyle" data-source-line="19" data-uid="ent0006" id="entity_MainStyle"><rect fill="#313139" height="48" rx="2.5" ry="2.5" style="stroke:#E7E7E7;stroke-width:0.5;" width="100.585" x="178.97" y="447.78"/><ellipse cx="193.97" cy="463.78" fill="#2E5233" rx="11" ry="11" style="stroke:#E7E7E7;stroke-width:1;"/><path d="M196.9388,469.4206 Q196.3606,469.7175 195.72,469.8581 Q195.0794,470.0144 194.3763,470.0144 Q191.8763,470.0144 190.5481,468.3738 Q189.2356,466.7175 189.2356,463.5925 Q189.2356,460.4675 190.5481,458.8113 Q191.8763,457.155 194.3763,457.155 Q195.0794,457.155 195.72,457.3113 Q196.3763,457.4675 196.9388,457.7644 L196.9388,460.4831 Q196.3138,459.905 195.72,459.6394 Q195.1263,459.3581 194.5013,459.3581 Q193.1575,459.3581 192.47,460.4363 Q191.7825,461.4988 191.7825,463.5925 Q191.7825,465.6863 192.47,466.7644 Q193.1575,467.8269 194.5013,467.8269 Q195.1263,467.8269 195.72,467.5613 Q196.3138,467.28 196.9388,466.7019 L196.9388,469.4206 Z " fill="#FFFFFF"/><text fill="#FFFFFF" font-family="sans-serif" font-size="14" lengthAdjust="spacing" textLength="68.585" x="207.97" y="468.6267">MainStyle</text><line style="stroke:#E7E7E7;stroke-width:0.5;" x1="179.97" x2="278.555" y1="479.78" y2="479.78"/><line style="stroke:#E7E7E7;stroke-width:0.5;" x1="179.97" x2="278.555" y1="487.78" y2="487.78"/></g><!--reverse link RendererStyle to Renderer--><g class="link" data-entity-1="RendererStyle" data-entity-2="Renderer" data-source-line="22" data-uid="lnk7" id="link_RendererStyle_Renderer"><path codeLine="22" d="M162.8839,87.2844 C152.4939,105.8344 148.2,113.53 137.82,132.07" fill="none" id="RendererStyle-backto-Renderer" style="stroke:#E7E7E7;stroke-width:1;stroke-dasharray:7,7;"/><polygon fill="none" points="171.68,71.58,157.6491,84.3523,168.1186,90.2164,171.68,71.58" style="stroke:#E7E7E7;stroke-width:1;"/></g><!--reverse link Renderer to Metadata--><g class="link" data-entity-1="Renderer" data-entity-2="Metadata" data-source-line="23" data-uid="lnk8" id="link_Renderer_Metadata"><path codeLine="23" d="M114.5995,214.6617 C112.5795,232.1917 112.07,236.69 109.71,257.14" fill="none" id="Renderer-backto-Metadata" style="stroke:#E7E7E7;stroke-width:1;stroke-dasharray:7,7;"/><polygon fill="none" points="116.66,196.78,108.6389,213.9748,120.56,215.3485,116.66,196.78" style="stroke:#E7E7E7;stroke-width:1;"/></g><!--reverse link RendererStyle to MainStyle--><g class="link" data-entity-1="RendererStyle" data-entity-2="MainStyle" data-source-line="24" data-uid="lnk9" id="link_RendererStyle_MainStyle"><path codeLine="24" d="M202.6588,88.8605 C207.3088,106.5805 208.12,111.81 211.27,132.3 C229.44,250.53 226.04,281.23 230.27,400.78 C230.81,416.33 230.56,433.83 230.18,447.44" fill="none" id="RendererStyle-backto-MainStyle" style="stroke:#E7E7E7;stroke-width:1;stroke-dasharray:7,7;"/><polygon fill="none" points="198.09,71.45,196.8553,90.3834,208.4623,87.3376,198.09,71.45" style="stroke:#E7E7E7;stroke-width:1;"/></g><!--link Metadata to MainStyle--><g class="link" data-entity-1="Metadata" data-entity-2="MainStyle" data-source-line="26" data-uid="lnk10" id="link_Metadata_MainStyle"><path codeLine="26" d="M135.37,371.21 C145.4,386.91 157.06,403.56 169.27,417.78 C178.32,428.33 184.8941,434.8156 195.1041,443.5656" fill="none" id="Metadata-to-MainStyle" style="stroke:#E7E7E7;stroke-width:1;"/><polygon fill="#E7E7E7" points="199.66,447.47,195.4291,438.5762,195.8635,444.2163,190.2233,444.6507,199.66,447.47" style="stroke:#E7E7E7;stroke-width:1;"/><text fill="#FFFFFF" font-family="sans-serif" font-size="13" lengthAdjust="spacing" textLength="55.0278" x="170.27" y="413.8469">contains</text></g><!--link Metadata to MetaTag--><g class="link" data-entity-1="Metadata" data-entity-2="MetaTag" data-source-line="27" data-uid="lnk11" id="link_Metadata_MetaTag"><path codeLine="27" d="M79.91,371.06 C76.74,380.81 73.99,390.97 72.27,400.78 C70.96,408.22 72.05,410.23 72.27,417.78 C72.54,427.45 72.7255,432.1211 73.2855,441.3211" fill="none" id="Metadata-to-MetaTag" style="stroke:#E7E7E7;stroke-width:1;"/><polygon fill="#E7E7E7" points="73.65,447.31,77.0958,438.0836,73.3462,442.3192,69.1106,438.5697,73.65,447.31" style="stroke:#E7E7E7;stroke-width:1;"/><text fill="#FFFFFF" font-family="sans-serif" font-size="13" lengthAdjust="spacing" textLength="55.0278" x="73.27" y="413.8469">contains</text></g><!--SRC=[RL2x3i8m3Dpp5TvH-m4HOcEZ2tH335PheaWb5OcHGC2_uoPzK4eMstVsdHthcFmPAu8zkPey-GC_6eAd0dah7y48QOYXf3khjr9sCJYVqL2WTSlkWXXhP1owBr8p6b6dwx4ZIpIdH8Las-b4wuGswCmDZH2xFakuE95ZspeDso5TMekwE0jSDHZ2f9t0-H-iNta-NZTo2HxE-3SoBQp6QxDiysMceMeTInb-EleD9_u3]--></g></svg>