<svg xmlns="http://www.w3.org/2000/svg" xmlns:xlink="http://www.w3.org/1999/xlink" contentStyleType="text/css" data-diagram-type="CLASS" height="453px" preserveAspectRatio="none" style="width:345px;height:453px;background:#1B1B1B;" version="1.1" viewBox="0 0 345 453" width="345px" zoomAndPan="magnify"><defs/><g><rect fill="#1B1B1B" height="453" style="stroke:none;stroke-width:1;" width="345" x="0" y="0"/><!--class RendererStyle--><g class="entity" data-entity="RendererStyle" data-source-line="1" data-uid="ent0002" id="entity_RendererStyle"><rect fill="#313139" height="64.2969" rx="2.5" ry="2.5" style="stroke:#E7E7E7;stroke-width:0.5;" width="182.9326" x="7" y="7"/><ellipse cx="44.9184" cy="23" fill="#352866" rx="11" ry="11" style="stroke:#E7E7E7;stroke-width:1;"/><path d="M40.8402,18.7656 L40.8402,16.6094 L48.2309,16.6094 L48.2309,18.7656 L45.7621,18.7656 L45.7621,26.8438 L48.2309,26.8438 L48.2309,29 L40.8402,29 L40.8402,26.8438 L43.309,26.8438 L43.309,18.7656 L40.8402,18.7656 Z " fill="#FFFFFF"/><text fill="#FFFFFF" font-family="sans-serif" font-size="14" font-style="italic" lengthAdjust="spacing" textLength="100.0029" x="64.0113" y="27.8467">RendererStyle</text><line style="stroke:#E7E7E7;stroke-width:0.5;" x1="8" x2="188.9326" y1="39" y2="39"/><ellipse cx="18" cy="52.6484" fill="none" rx="3" ry="3" style="stroke:#038048;stroke-width:1;"/><text fill="#FFFFFF" font-family="sans-serif" font-size="14" lengthAdjust="spacing" textLength="156.9326" x="27" y="55.9951">renderStyle: StyleText</text><line style="stroke:#E7E7E7;stroke-width:0.5;" x1="8" x2="188.9326" y1="63.2969" y2="63.2969"/></g><!--class Renderer--><g class="entity" data-entity="Renderer" data-source-line="5" data-uid="ent0003" id="entity_Renderer"><rect fill="#313139" height="64.2969" rx="2.5" ry="2.5" style="stroke:#E7E7E7;stroke-width:0.5;" width="146.0254" x="25.45" y="132.29"/><ellipse cx="62.5839" cy="148.29" fill="#352866" rx="11" ry="11" style="stroke:#E7E7E7;stroke-width:1;"/><path d="M58.5058,144.0556 L58.5058,141.8994 L65.8964,141.8994 L65.8964,144.0556 L63.4277,144.0556 L63.4277,152.1337 L65.8964,152.1337 L65.8964,154.29 L58.5058,154.29 L58.5058,152.1337 L60.9746,152.1337 L60.9746,144.0556 L58.5058,144.0556 Z " fill="#FFFFFF"/><text fill="#FFFFFF" font-family="sans-serif" font-size="14" font-style="italic" lengthAdjust="spacing" textLength="64.8389" x="81.5026" y="153.1367">Renderer</text><line style="stroke:#E7E7E7;stroke-width:0.5;" x1="26.45" x2="170.4754" y1="164.29" y2="164.29"/><ellipse cx="36.45" cy="177.9384" fill="none" rx="3" ry="3" style="stroke:#038048;stroke-width:1;"/><text fill="#FFFFFF" font-family="sans-serif" font-size="14" lengthAdjust="spacing" textLength="120.0254" x="45.45" y="181.2851">render: MainText</text><line style="stroke:#E7E7E7;stroke-width:0.5;" x1="26.45" x2="170.4754" y1="188.5869" y2="188.5869"/></g><!--class Metadata--><g class="entity" data-entity="Metadata" data-source-line="9" data-uid="ent0004" id="entity_Metadata"><rect fill="#313139" height="48" rx="2.5" ry="2.5" style="stroke:#E7E7E7;stroke-width:0.5;" width="98.2949" x="239.32" y="273.59"/><ellipse cx="254.32" cy="289.59" fill="#352866" rx="11" ry="11" style="stroke:#E7E7E7;stroke-width:1;"/><path d="M250.2419,285.3556 L250.2419,283.1994 L257.6325,283.1994 L257.6325,285.3556 L255.1638,285.3556 L255.1638,293.4338 L257.6325,293.4338 L257.6325,295.59 L250.2419,295.59 L250.2419,293.4338 L252.7106,293.4338 L252.7106,285.3556 L250.2419,285.3556 Z " fill="#FFFFFF"/><text fill="#FFFFFF" font-family="sans-serif" font-size="14" font-style="italic" lengthAdjust="spacing" textLength="66.2949" x="268.32" y="294.4367">Metadata</text><line style="stroke:#E7E7E7;stroke-width:0.5;" x1="240.32" x2="336.6149" y1="305.59" y2="305.59"/><line style="stroke:#E7E7E7;stroke-width:0.5;" x1="240.32" x2="336.6149" y1="313.59" y2="313.59"/></g><!--class Content--><g class="entity" data-entity="Content" data-source-line="12" data-uid="ent0005" id="entity_Content"><rect fill="#313139" height="48" rx="2.5" ry="2.5" style="stroke:#E7E7E7;stroke-width:0.5;" width="87.6787" x="110.63" y="273.59"/><ellipse cx="125.63" cy="289.59" fill="#352866" rx="11" ry="11" style="stroke:#E7E7E7;stroke-width:1;"/><path d="M121.5519,285.3556 L121.5519,283.1994 L128.9425,283.1994 L128.9425,285.3556 L126.4738,285.3556 L126.4738,293.4338 L128.9425,293.4338 L128.9425,295.59 L121.5519,295.59 L121.5519,293.4338 L124.0206,293.4338 L124.0206,285.3556 L121.5519,285.3556 Z " fill="#FFFFFF"/><text fill="#FFFFFF" font-family="sans-serif" font-size="14" font-style="italic" lengthAdjust="spacing" textLength="55.6787" x="139.63" y="294.4367">Content</text><line style="stroke:#E7E7E7;stroke-width:0.5;" x1="111.63" x2="197.3087" y1="305.59" y2="305.59"/><line style="stroke:#E7E7E7;stroke-width:0.5;" x1="111.63" x2="197.3087" y1="313.59" y2="313.59"/></g><!--class Papyrus--><g class="entity" data-entity="Papyrus" data-source-line="15" data-uid="ent0006" id="entity_Papyrus"><rect fill="#313139" height="64.2969" rx="2.5" ry="2.5" style="stroke:#E7E7E7;stroke-width:0.5;" width="88.1162" x="228.41" y="132.29"/><ellipse cx="243.41" cy="148.29" fill="#352866" rx="11" ry="11" style="stroke:#E7E7E7;stroke-width:1;"/><path d="M239.3319,144.0556 L239.3319,141.8994 L246.7225,141.8994 L246.7225,144.0556 L244.2538,144.0556 L244.2538,152.1337 L246.7225,152.1337 L246.7225,154.29 L239.3319,154.29 L239.3319,152.1337 L241.8006,152.1337 L241.8006,144.0556 L239.3319,144.0556 Z " fill="#FFFFFF"/><text fill="#FFFFFF" font-family="sans-serif" font-size="14" font-style="italic" lengthAdjust="spacing" textLength="56.1162" x="257.41" y="153.1367">Papyrus</text><line style="stroke:#E7E7E7;stroke-width:0.5;" x1="229.41" x2="315.5262" y1="164.29" y2="164.29"/><ellipse cx="239.41" cy="177.9384" fill="none" rx="3" ry="3" style="stroke:#038048;stroke-width:1;"/><text fill="#FFFFFF" font-family="sans-serif" font-size="14" lengthAdjust="spacing" textLength="34.4258" x="248.41" y="181.2851">build</text><line style="stroke:#E7E7E7;stroke-width:0.5;" x1="229.41" x2="315.5262" y1="188.5869" y2="188.5869"/></g><!--class LayerElement--><g class="entity" data-entity="LayerElement" data-source-line="19" data-uid="ent0007" id="entity_LayerElement"><rect fill="#313139" height="48" rx="2.5" ry="2.5" style="stroke:#E7E7E7;stroke-width:0.5;" width="128.9951" x="21.97" y="398.59"/><ellipse cx="36.97" cy="414.59" fill="#352866" rx="11" ry="11" style="stroke:#E7E7E7;stroke-width:1;"/><path d="M32.8919,410.3556 L32.8919,408.1994 L40.2825,408.1994 L40.2825,410.3556 L37.8138,410.3556 L37.8138,418.4338 L40.2825,418.4338 L40.2825,420.59 L32.8919,420.59 L32.8919,418.4338 L35.3606,418.4338 L35.3606,410.3556 L32.8919,410.3556 Z " fill="#FFFFFF"/><text fill="#FFFFFF" font-family="sans-serif" font-size="14" font-style="italic" lengthAdjust="spacing" textLength="96.9951" x="50.97" y="419.4367">LayerElement</text><line style="stroke:#E7E7E7;stroke-width:0.5;" x1="22.97" x2="149.9651" y1="430.59" y2="430.59"/><line style="stroke:#E7E7E7;stroke-width:0.5;" x1="22.97" x2="149.9651" y1="438.59" y2="438.59"/></g><!--reverse link RendererStyle to Renderer--><g class="link" data-entity-1="RendererStyle" data-entity-2="Renderer" data-source-line="22" data-uid="lnk8" id="link_RendererStyle_Renderer"><path codeLine="22" d="M98.47,89.58 C98.47,108.13 98.47,113.53 98.47,132.07" fill="none" id="RendererStyle-backto-Renderer" style="stroke:#E7E7E7;stroke-width:1;stroke-dasharray:7,7;"/><polygon fill="none" points="98.47,71.58,92.47,89.58,104.47,89.58,98.47,71.58" style="stroke:#E7E7E7;stroke-width:1;"/></g><!--reverse link Renderer to Metadata--><g class="link" data-entity-1="Renderer" data-entity-2="Metadata" data-source-line="23" data-uid="lnk9" id="link_Renderer_Metadata"><path codeLine="23" d="M146.5275,208.5744 C163.7975,223.5544 171.78,229.47 192.47,243.59 C208.03,254.22 225.92,264.55 242,273.23" fill="none" id="Renderer-backto-Metadata" style="stroke:#E7E7E7;stroke-width:1;stroke-dasharray:7,7;"/><polygon fill="none" points="132.93,196.78,142.596,213.1069,150.4589,204.042,132.93,196.78" style="stroke:#E7E7E7;stroke-width:1;"/></g><!--reverse link Renderer to Content--><g class="link" data-entity-1="Renderer" data-entity-2="Content" data-source-line="24" data-uid="lnk10" id="link_Renderer_Content"><path codeLine="24" d="M109.4387,214.4568 C113.0587,228.9968 113.82,228.81 120.47,243.59 C125.04,253.76 131.36,264.24 137.32,273.17" fill="none" id="Renderer-backto-Content" style="stroke:#E7E7E7;stroke-width:1;stroke-dasharray:7,7;"/><polygon fill="none" points="105.09,196.99,103.6164,215.9064,115.2609,213.0072,105.09,196.99" style="stroke:#E7E7E7;stroke-width:1;"/></g><!--reverse link Renderer to LayerElement--><g class="link" data-entity-1="Renderer" data-entity-2="LayerElement" data-source-line="25" data-uid="lnk11" id="link_Renderer_LayerElement"><path codeLine="25" d="M96.1479,214.8303 C93.7079,266.9303 89.72,352.08 87.56,398.26" fill="none" id="Renderer-backto-LayerElement" style="stroke:#E7E7E7;stroke-width:1;stroke-dasharray:7,7;"/><polygon fill="none" points="96.99,196.85,90.1545,214.5496,102.1414,215.111,96.99,196.85" style="stroke:#E7E7E7;stroke-width:1;"/></g><!--link Papyrus to Metadata--><g class="link" data-entity-1="Papyrus" data-entity-2="Metadata" data-source-line="28" data-uid="lnk12" id="link_Papyrus_Metadata"><path codeLine="28" d="M276.3,196.85 C279.16,220.35 282.2927,245.9942 284.8927,267.2842" fill="none" id="Papyrus-to-Metadata" style="stroke:#E7E7E7;stroke-width:1;"/><polygon fill="#E7E7E7" points="285.62,273.24,288.4995,263.8215,285.0139,268.2769,280.5585,264.7913,285.62,273.24" style="stroke:#E7E7E7;stroke-width:1;"/><text fill="#FFFFFF" font-family="sans-serif" font-size="13" lengthAdjust="spacing" textLength="55.0278" x="282.47" y="239.6569">contains</text></g><!--link Papyrus to Content--><g class="link" data-entity-1="Papyrus" data-entity-2="Content" data-source-line="29" data-uid="lnk13" id="link_Papyrus_Content"><path codeLine="29" d="M242.06,196.89 C233.07,206.35 223.29,216.81 214.47,226.59 C200.64,241.92 189.3806,254.9954 177.7806,268.7354" fill="none" id="Papyrus-to-Content" style="stroke:#E7E7E7;stroke-width:1;"/><polygon fill="#E7E7E7" points="173.91,273.32,182.7723,269.0234,177.1355,269.4995,176.6594,263.8627,173.91,273.32" style="stroke:#E7E7E7;stroke-width:1;"/><text fill="#FFFFFF" font-family="sans-serif" font-size="13" lengthAdjust="spacing" textLength="55.0278" x="215.47" y="239.6569">contains</text></g><!--link Content to LayerElement--><g class="link" data-entity-1="Content" data-entity-2="LayerElement" data-source-line="30" data-uid="lnk14" id="link_Content_LayerElement"><path codeLine="30" d="M141.52,322.01 C129.42,343.9 114.352,371.1385 102.272,392.9985" fill="none" id="Content-to-LayerElement" style="stroke:#E7E7E7;stroke-width:1;"/><polygon fill="#E7E7E7" points="99.37,398.25,107.224,392.3074,101.7883,393.8737,100.222,388.4381,99.37,398.25" style="stroke:#E7E7E7;stroke-width:1;"/><text fill="#FFFFFF" font-family="sans-serif" font-size="13" lengthAdjust="spacing" textLength="55.0278" x="125.47" y="364.6569">contains</text></g><!--SRC=[POz13i8W44NtSmhsJNi0OjmOTpOnwWN6CYOaY8PE4ubwTn65bfODvFtvm__QChaBTYGEP1KvSaVsXiGJH3YLYp0YAU9reWV36q0lZAL7YXQrNKwtnAYGCKmNV7CBJyjplCUxTqCVTrVdGHjLwZlqvBQ6hjbRzbYzcYOdpDeFfoWp_4yoezEF023bgklrM4cABdX3xRxGKxM9dD1NBYgCCny0]--></g></svg>