<svg xmlns="http://www.w3.org/2000/svg" xmlns:xlink="http://www.w3.org/1999/xlink" xmlns:lucid="lucid" width="2422" height="748.48"><g transform="translate(2101 401)" lucid:page-tab-id="2ccsZvYVet80"><path d="M-2500-500H500V500h-3000z" fill="#fff"/><path d="M-1108.13-379.9a7.26 7.26 0 0 0 7.13 5.9h55a6 6 0 0 1 6 6v82a6 6 0 0 1-6 6h-168a6 6 0 0 1-6-6v-108a6 6 0 0 1 6-6h96a7.26 7.26 0 0 1 7.13 5.9zM-1220-374h113" stroke="#000" stroke-width="2" fill="#fff"/><use xlink:href="#a" transform="matrix(1,0,0,1,-1212,-400) translate(0 21.52777777777778)"/><use xlink:href="#b" transform="matrix(1,0,0,1,-1208,-366) translate(0 47.083767361111114)"/><path d="M-1108.13-159.9a7.26 7.26 0 0 0 7.13 5.9h55a6 6 0 0 1 6 6v82a6 6 0 0 1-6 6h-168a6 6 0 0 1-6-6v-108a6 6 0 0 1 6-6h96a7.26 7.26 0 0 1 7.13 5.9zM-1220-154h113" stroke="#000" stroke-width="2" fill="#fff"/><use xlink:href="#a" transform="matrix(1,0,0,1,-1212,-180) translate(0 21.52777777777778)"/><use xlink:href="#c" transform="matrix(1,0,0,1,-1208,-146) translate(0 47.083767361111114)"/><path d="M-524.54-159.9a7.26 7.26 0 0 0 7.13 5.9h55a6 6 0 0 1 6 6v82a6 6 0 0 1-6 6h-168a6 6 0 0 1-6-6v-108a6 6 0 0 1 6-6h96a7.26 7.26 0 0 1 7.12 5.9zM-636.4-154h113" stroke="#000" stroke-width="2" fill="#fff"/><use xlink:href="#a" transform="matrix(1,0,0,1,-628.4111673338235,-180) translate(0 21.52777777777778)"/><use xlink:href="#d" transform="matrix(1,0,0,1,-624.4111673338235,-146) translate(0 47.083767361111114)"/><path d="M-524.54 40.1a7.26 7.26 0 0 0 7.13 5.9h55a6 6 0 0 1 6 6v82a6 6 0 0 1-6 6h-168a6 6 0 0 1-6-6V26a6 6 0 0 1 6-6h96a7.26 7.26 0 0 1 7.12 5.9zM-636.4 46h113" stroke="#000" stroke-width="2" fill="#fff"/><use xlink:href="#a" transform="matrix(1,0,0,1,-628.4111673338235,20) translate(0 21.52777777777778)"/><use xlink:href="#e" transform="matrix(1,0,0,1,-624.4111673338235,54) translate(0 47.083767361111114)"/><path d="M-1268.13 40.1A7.26 7.26 0 0 0-1261 46h55a6 6 0 0 1 6 6v82a6 6 0 0 1-6 6h-168a6 6 0 0 1-6-6V26a6 6 0 0 1 6-6h96a7.26 7.26 0 0 1 7.13 5.9zM-1380 46h113" stroke="#000" stroke-width="2" fill="#fff"/><use xlink:href="#a" transform="matrix(1,0,0,1,-1372,20) translate(0 21.52777777777778)"/><use xlink:href="#f" transform="matrix(1,0,0,1,-1368,54) translate(0 47.083767361111114)"/><path d="M-1028.13 40.1A7.26 7.26 0 0 0-1021 46h55a6 6 0 0 1 6 6v82a6 6 0 0 1-6 6h-168a6 6 0 0 1-6-6V26a6 6 0 0 1 6-6h96a7.26 7.26 0 0 1 7.13 5.9zM-1140 46h113" stroke="#000" stroke-width="2" fill="#fff"/><use xlink:href="#a" transform="matrix(1,0,0,1,-1132,20) translate(0 21.52777777777778)"/><use xlink:href="#g" transform="matrix(1,0,0,1,-1128,54) translate(0 47.083767361111114)"/><path d="M-1508.13 40.1A7.26 7.26 0 0 0-1501 46h55a6 6 0 0 1 6 6v82a6 6 0 0 1-6 6h-168a6 6 0 0 1-6-6V26a6 6 0 0 1 6-6h96a7.26 7.26 0 0 1 7.13 5.9zM-1620 46h113" stroke="#000" stroke-width="2" fill="#fff"/><use xlink:href="#a" transform="matrix(1,0,0,1,-1612,20) translate(0 21.52777777777778)"/><use xlink:href="#h" transform="matrix(1,0,0,1,-1608,54) translate(0 47.083767361111114)"/><path d="M-788.13 40.1A7.26 7.26 0 0 0-781 46h55a6 6 0 0 1 6 6v82a6 6 0 0 1-6 6h-168a6 6 0 0 1-6-6V26a6 6 0 0 1 6-6h96a7.26 7.26 0 0 1 7.13 5.9zM-900 46h113" stroke="#000" stroke-width="2" fill="#fff"/><use xlink:href="#a" transform="matrix(1,0,0,1,-892,20) translate(0 21.52777777777778)"/><use xlink:href="#i" transform="matrix(1,0,0,1,-888,54) translate(0 47.083767361111114)"/><path d="M-1668.13-159.9a7.26 7.26 0 0 0 7.13 5.9h55a6 6 0 0 1 6 6v82a6 6 0 0 1-6 6h-168a6 6 0 0 1-6-6v-108a6 6 0 0 1 6-6h96a7.26 7.26 0 0 1 7.13 5.9zM-1780-154h113" stroke="#000" stroke-width="2" fill="#fff"/><use xlink:href="#a" transform="matrix(1,0,0,1,-1772,-180) translate(0 21.52777777777778)"/><use xlink:href="#j" transform="matrix(1,0,0,1,-1768,-146) translate(0 47.083767361111114)"/><path d="M-1690-181.5v-2.13m0-4.25v-4.25m0-4.25v-4.25m0-4.25v-4.25m0-4.25v-4.25m0-4.25V-224l.07-.94.22-.9.17-.45m3.24-3.23l.45-.18.9-.23.95-.07h2m3.96 0h3.97m3.97 0h3.97m3.97 0h3.97m3.98 0h3.97m3.97 0h3.98m3.97 0h3.97m3.97 0h3.98m3.97 0h3.97m3.97 0h3.96m3.97 0h3.98m3.98 0h3.97m3.97 0h3.97m3.96 0h3.97m3.97 0h3.97m3.97 0h3.98m3.97 0h3.96m3.97 0h3.97m3.97 0h3.97m3.97 0h3.98m3.97 0h3.98m3.97 0h3.97m3.97 0h3.97m3.98 0h3.97m3.97 0h3.97m3.97 0h3.97m3.97 0h3.98m3.97 0h3.97m3.97 0h3.96m3.97 0h3.97m3.98 0h3.97m3.97 0h3.97m3.96 0h3.97m3.97 0h3.97m3.97 0h3.97m4 0h3.96m3.97 0h3.97m3.97 0h3.97m3.97 0h3.98m3.97 0h3.97m3.98 0h3.97m3.97 0h3.97m3.98 0h3.97m3.97 0h3.97m3.96 0h3.97m3.98 0h3.98m3.97 0h3.97m3.97 0h3.96m3.97 0h3.97m3.97 0h3.97m3.98 0h3.97m3.96 0h3.97m3.97 0h3.97m3.97 0h3.97m3.98 0h3.97m3.98 0h3.97m3.97 0h3.97m3.97 0h3.98m3.97 0h3.97m3.97 0h3.97m3.97 0h3.97m3.98 0h3.97m3.97 0h3.97m3.96 0h3.97m3.97 0h3.98m3.97 0h3.97m3.97 0h3.96m3.97 0h3.97m3.97 0h3.97m3.97 0h2l.94-.07.9-.22.45-.17m3.23-3.24l.18-.45.23-.9.07-.95v-1.78m0-3.57v-3.56m0-3.57v-3.57m0-3.56v-3.56m0-3.57v-1.78" stroke="#3a414a" fill="none"/><path d="M-1689.53-181h-.94v-.5h.94z" stroke="#3a414a" stroke-width=".05" fill="#3a414a"/><path d="M-1130-278l7.5 13h-15z" stroke="#3a414a" fill="#fff"/><path d="M-1530 18.5v-2.03m0-4.06V8.35m0-4.06V.22m0-4.06V-7.9m0-4.07V-14l.07-.94.22-.9.17-.45m3.24-3.23l.45-.18.9-.23.95-.07h1.98m3.96 0h3.96m3.96 0h3.96m3.96 0h3.95m3.96 0h3.95m3.96 0h3.97m3.96 0h3.96m3.95 0h3.96m3.97 0h3.96m3.96 0h3.94m3.96 0h3.96m3.96 0h3.96m3.96 0h3.96m3.96 0h3.96m3.96 0h3.96m3.96 0h3.96m3.95 0h3.97m3.96 0h3.96m3.95 0h3.96m3.97 0h3.96m3.96 0h3.95m3.96 0h3.97m3.95 0h3.96m3.96 0h3.96m3.96 0h3.96m3.96 0h3.96m3.96 0h3.96m3.96 0h3.96m3.95 0h3.96m3.95 0h3.96m3.97 0h3.96m3.96 0h3.95m3.96 0h3.97m3.96 0h3.96m3.94 0h3.96m3.96 0h3.96m3.96 0h3.96m3.96 0h3.96m3.96 0h3.96m3.96 0h3.96m3.96 0h3.95m3.97 0h3.96m3.96 0h3.95m3.96 0h3.97m3.96 0h3.96m3.95 0h3.96m3.97 0h3.95m3.96 0h3.96m3.96 0h3.96m3.96 0h1.98l.94-.07.9-.22.45-.17m3.23-3.24l.18-.45.23-.9.07-.95v-2.3m0-4.64v-4.63m0-4.63v-2.3" stroke="#3a414a" fill="none"/><path d="M-1529.53 19h-.94v-.5h.94z" stroke="#3a414a" stroke-width=".05" fill="#3a414a"/><path d="M-1130-58l7.5 13h-15z" stroke="#3a414a" fill="#fff"/><path d="M-1290 18.5v-2.03m0-4.06V8.35m0-4.06V.22m0-4.06V-7.9m0-4.07V-14l.07-.94.22-.9.17-.45m3.24-3.23l.45-.18.9-.23.95-.07h1.95m3.9 0h3.9m3.88 0h3.9m3.9 0h3.9m3.88 0h3.9m3.9 0h3.9m3.9 0h3.88m3.9 0h3.9m3.9 0h3.88m3.9 0h3.9m3.9 0h3.88m3.9 0h3.9m3.9 0h3.88m3.9 0h3.9m3.88 0h3.9m3.9 0h3.9m3.88 0h3.9m3.9 0h3.9m3.88 0h3.9m3.9 0h1.94l.94-.07.9-.22.45-.17m3.23-3.24l.18-.45.23-.9.07-.95v-2.3m0-4.64v-4.63m0-4.63v-2.3" stroke="#3a414a" fill="none"/><path d="M-1289.53 19h-.94v-.5h.94z" stroke="#3a414a" stroke-width=".05" fill="#3a414a"/><path d="M-1130-58l7.5 13h-15z" stroke="#3a414a" fill="#fff"/><path d="M-1050 18.5v-2.03m0-4.06V8.35m0-4.06V.22m0-4.06V-7.9m0-4.07V-14l-.07-.94-.22-.9-.17-.45m-3.24-3.23l-.45-.18-.9-.23-.95-.07h-2.06m-4.13 0h-4.1m-4.14 0h-4.12m-4.13 0h-4.1m-4.14 0h-4.12m-4.13 0h-4.1m-4.14 0h-4.12m-4.13 0h-4.1m-4.14 0h-2.06l-.94-.07-.9-.22-.45-.17m-3.23-3.24l-.18-.45-.23-.9-.07-.95v-2.3m0-4.64v-4.63m0-4.63v-2.3" stroke="#3a414a" fill="none"/><path d="M-1049.53 19h-.94v-.5h.94z" stroke="#3a414a" stroke-width=".05" fill="#3a414a"/><path d="M-1128-58l7.5 13h-15z" stroke="#3a414a" fill="#fff"/><path d="M-810 18.5v-2.03m0-4.06V8.35m0-4.06V.22m0-4.06V-7.9m0-4.07V-14l-.07-.94-.22-.9-.17-.45m-3.24-3.23l-.45-.18-.9-.23-.95-.07h-1.97m-3.95 0h-3.95m-3.95 0h-3.95m-3.95 0h-3.95m-3.95 0h-3.94m-3.95 0h-3.96m-3.95 0h-3.96m-3.95 0h-3.96m-3.95 0h-3.95m-3.95 0h-3.95m-3.95 0h-3.95m-3.95 0h-3.95m-3.94 0h-3.94m-3.95 0h-3.94m-3.95 0h-3.94m-3.95 0h-3.94m-3.94 0h-3.95m-3.95 0h-3.95m-3.95 0h-3.95m-3.95 0h-3.95m-3.94 0h-3.95m-3.95 0h-3.95m-3.95 0h-3.95m-3.95 0h-3.95m-3.94 0h-3.95m-3.96 0h-3.95m-3.96 0h-3.95m-3.96 0h-3.94m-3.95 0h-3.95m-3.95 0h-3.95m-3.95 0h-3.95m-3.95 0h-3.95m-3.94 0h-3.95m-3.94 0h-3.95m-3.94 0h-3.95m-3.94 0h-3.94m-3.95 0h-3.95m-3.95 0h-3.95m-3.95 0h-3.95m-3.95 0h-1.97l-.94-.07-.9-.22-.45-.17m-3.23-3.24l-.18-.45-.23-.9-.07-.95v-2.3m0-4.64v-4.63m0-4.63v-2.3" stroke="#3a414a" fill="none"/><path d="M-809.52 19h-.96v-.5h.96z" stroke="#3a414a" stroke-width=".05" fill="#3a414a"/><path d="M-1130-58l7.5 13h-15z" stroke="#3a414a" fill="#fff"/><path d="M-1130-181.5v-2.07m0-4.16v-4.15m0-4.15v-4.15m0-4.15v-4.15m0-4.15v-4.15m0-4.15v-4.15m0-4.15v-4.15m0-4.15v-4.15m0-4.15v-4.15m0-4.15v-4.15m0-4.15v-2.08" stroke="#3a414a" fill="none"/><path d="M-1129.53-181h-.94v-.5h.94z" stroke="#3a414a" stroke-width=".05" fill="#3a414a"/><path d="M-1130-278l7.5 13h-15z" stroke="#3a414a" fill="#fff"/><path d="M-546.4-181.5v-2.13m0-4.25v-4.25m0-4.25v-4.25m0-4.25v-4.25m0-4.25v-4.25m0-4.25V-224l-.1-.94-.2-.9-.18-.45m-3.24-3.23l-.44-.18-.9-.23-.95-.07h-2.02m-4.03 0h-4.02m-4.03 0h-4.02m-4.03 0h-4.03m-4.02 0h-4.03m-4.02 0h-4.03m-4.02 0h-4.03m-4.02 0h-4.03m-4.02 0h-4.03m-4.02 0h-4.03m-4.02 0h-4.03m-4.03 0h-4.02m-4.02 0h-4.03m-4.03 0h-4.02m-4.03 0h-4.03m-4.03 0h-4.02m-4.03 0h-4.03m-4.03 0h-4.02m-4.03 0h-4.03m-4.03 0h-4.02m-4.03 0h-4.03m-4.03 0h-4.02m-4.03 0h-4.04m-4.02 0h-4.03m-4 0h-4.04m-4.02 0h-4.03m-4 0h-4.04m-4.02 0h-4.03m-4 0h-4.04m-4.02 0h-4.03m-4 0h-4.04m-4.02 0H-804m-4.02 0h-4.02m-4.03 0h-4.02m-4.02 0h-4.02m-4.03 0h-4.02m-4.02 0h-4.02m-4.03 0h-4.02m-4.02 0h-4.02m-4.03 0h-4.02m-4.02 0h-4.03m-4.02 0h-4.03m-4.02 0h-4.03m-4.02 0h-4.03m-4.02 0h-4.03m-4.02 0h-4.03m-4.02 0h-4.03m-4.02 0h-4.03m-4.03 0h-4.02m-4.02 0h-4.03m-4.03 0h-4.02m-4.03 0H-965m-4.03 0h-4.02m-4.03 0h-4.02m-4.03 0h-4.02m-4.03 0h-4.02m-4.03 0h-4.02m-4.03 0h-4.02m-4.03 0h-4.03m-4.02 0h-4.03m-4.03 0h-4.03m-4.02 0h-4.03m-4.03 0h-4.03m-4.02 0h-4.03m-4.03 0h-4.03m-4.02 0h-4.03m-4.03 0h-4.03m-4.03 0h-4m-4.04 0h-4.02m-4.03 0h-4m-4.04 0h-4.02m-4.03 0h-2l-.94-.07-.9-.22-.45-.17m-3.23-3.24l-.18-.45-.23-.9-.07-.95v-1.78m0-3.57v-3.56m0-3.57v-3.57m0-3.56v-3.56m0-3.57v-1.78" stroke="#3a414a" fill="none"/><path d="M-545.94-181h-.95v-.5h.96z" stroke="#3a414a" stroke-width=".05" fill="#3a414a"/><path d="M-1130-278l7.5 13h-15z" stroke="#3a414a" fill="#fff"/><path d="M-546.4 18.5v-1.97m0-3.94V8.64m0-3.93V.78m0-3.94V-7.1m0-3.94v-3.93m0-3.94v-3.95m0-3.94v-3.93m0-3.93v-3.94m0-3.94v-1.97" stroke="#3a414a" fill="none"/><path d="M-545.94 19h-.95v-.5h.96z" stroke="#3a414a" stroke-width=".05" fill="#3a414a"/><path d="M-546.4-58l7.5 13h-15z" stroke="#3a414a" fill="#fff"/><path d="M-1428.13 239.3a7.26 7.26 0 0 0 7.13 5.9h55a6 6 0 0 1 6 6v82a6 6 0 0 1-6 6h-168a6 6 0 0 1-6-6v-108a6 6 0 0 1 6-6h96a7.26 7.26 0 0 1 7.13 5.9zm-111.87 5.9h113" stroke="#000" stroke-width="2" fill="#fff"/><use xlink:href="#a" transform="matrix(1,0,0,1,-1532,219.20147889516272) translate(0 21.52777777777778)"/><use xlink:href="#k" transform="matrix(1,0,0,1,-1528,253.20147889516272) translate(0 47.083767361111114)"/><path d="M-1188.13 240.1a7.26 7.26 0 0 0 7.13 5.9h55a6 6 0 0 1 6 6v82a6 6 0 0 1-6 6h-168a6 6 0 0 1-6-6V226a6 6 0 0 1 6-6h96a7.26 7.26 0 0 1 7.13 5.9zM-1300 246h113" stroke="#000" stroke-width="2" fill="#fff"/><use xlink:href="#a" transform="matrix(1,0,0,1,-1292,220) translate(0 21.52777777777778)"/><use xlink:href="#l" transform="matrix(1,0,0,1,-1288,254) translate(0 47.083767361111114)"/><path d="M-948.13 240.1A7.26 7.26 0 0 0-941 246h55a6 6 0 0 1 6 6v82a6 6 0 0 1-6 6h-168a6 6 0 0 1-6-6V226a6 6 0 0 1 6-6h96a7.26 7.26 0 0 1 7.13 5.9zM-1060 246h113" stroke="#000" stroke-width="2" fill="#fff"/><use xlink:href="#a" transform="matrix(1,0,0,1,-1052,220) translate(0 21.52777777777778)"/><use xlink:href="#m" transform="matrix(1,0,0,1,-1048,254) translate(0 47.083767361111114)"/><path d="M-1988.13 40.1A7.26 7.26 0 0 0-1981 46h55a6 6 0 0 1 6 6v82a6 6 0 0 1-6 6h-168a6 6 0 0 1-6-6V26a6 6 0 0 1 6-6h96a7.26 7.26 0 0 1 7.13 5.9zM-2100 46h113" stroke="#000" stroke-width="2" fill="#fff"/><use xlink:href="#a" transform="matrix(1,0,0,1,-2092,20) translate(0 21.52777777777778)"/><use xlink:href="#n" transform="matrix(1,0,0,1,-2088,54) translate(0 47.083767361111114)"/><path d="M-1748.13 40.1A7.26 7.26 0 0 0-1741 46h55a6 6 0 0 1 6 6v82a6 6 0 0 1-6 6h-168a6 6 0 0 1-6-6V26a6 6 0 0 1 6-6h96a7.26 7.26 0 0 1 7.13 5.9zM-1860 46h113" stroke="#000" stroke-width="2" fill="#fff"/><use xlink:href="#a" transform="matrix(1,0,0,1,-1852,20) translate(0 21.52777777777778)"/><use xlink:href="#o" transform="matrix(1,0,0,1,-1848,54) translate(0 47.083767361111114)"/><path d="M-2010 18.5v-2.03m0-4.06V8.35m0-4.06V.22m0-4.06V-7.9m0-4.07V-14l.07-.94.22-.9.17-.45m3.24-3.23l.45-.18.9-.23.95-.07h1.97m3.95 0h3.95m3.95 0h3.95m3.95 0h3.95m3.94 0h3.96m3.95 0h3.96m3.95 0h3.96m3.95 0h3.96m3.94 0h3.95m3.95 0h3.95m3.95 0h3.95m3.95 0h3.95m3.95 0h3.94m3.95 0h3.94m3.95 0h3.94m3.95 0h3.94m3.94 0h3.95m3.95 0h3.95m3.95 0h3.95m3.95 0h3.95m3.94 0h3.95m3.95 0h3.95m3.95 0h3.95m3.95 0h3.94m3.96 0h3.95m3.96 0h3.95m3.96 0h3.95m3.96 0h3.94m3.95 0h3.95m3.95 0h3.95m3.95 0h3.95m3.95 0h3.95m3.94 0h3.95m3.94 0h3.95m3.94 0h3.95m3.94 0h3.94m3.95 0h3.95m3.95 0h3.95m3.95 0h3.95m3.95 0h1.97l.94-.07.9-.22.45-.17m3.23-3.24l.18-.45.23-.9.07-.95v-2.3m0-4.64v-4.63m0-4.63v-2.3" stroke="#3a414a" fill="none"/><path d="M-2009.53 19h-.94v-.5h.94z" stroke="#3a414a" stroke-width=".05" fill="#3a414a"/><path d="M-1690-58l7.5 13h-15z" stroke="#3a414a" fill="#fff"/><path d="M-1770 18.5v-2.03m0-4.06V8.35m0-4.06V.22m0-4.06V-7.9m0-4.07V-14l.07-.94.22-.9.17-.45m3.24-3.23l.45-.18.9-.23.95-.07h1.9m3.77 0h3.77m3.78 0h3.78m3.78 0h3.78m3.77 0h3.78m3.8 0h3.77m3.77 0h3.78m3.78 0h3.78m3.78 0h3.77m3.78 0h1.9l.94-.07.9-.22.45-.17m3.23-3.24l.18-.45.23-.9.07-.95v-2.3m0-4.64v-4.63m0-4.63v-2.3" stroke="#3a414a" fill="none"/><path d="M-1769.53 19h-.94v-.5h.94z" stroke="#3a414a" stroke-width=".05" fill="#3a414a"/><path d="M-1690-58l7.5 13h-15z" stroke="#3a414a" fill="#fff"/><path d="M-1450 217.7v-2m0-4.02v-4m0-4.02v-4m0-4.03v-4m0-4.02v-2l.07-.94.22-.9.17-.45m3.24-3.23l.45-.18.9-.22.95-.08h1.98m3.96 0h3.96m3.96 0h3.96m3.96 0h3.95m3.96 0h3.95m3.96 0h3.97m3.96 0h3.96m3.95 0h3.96m3.97 0h3.96m3.96 0h3.94m3.96 0h3.96m3.96 0h3.96m3.96 0h3.96m3.96 0h3.96m3.96 0h3.96m3.96 0h3.96m3.95 0h3.97m3.96 0h3.96m3.95 0h3.96m3.97 0h3.96m3.96 0h3.95m3.96 0h3.97m3.95 0h3.96m3.96 0h3.96m3.96 0h3.96m3.96 0h3.96m3.96 0h3.96m3.96 0h3.96m3.95 0h3.96m3.95 0h3.96m3.97 0h3.96m3.96 0h3.95m3.96 0h3.97m3.96 0h3.96m3.94 0h3.96m3.96 0h3.96m3.96 0h3.96m3.96 0h3.96m3.96 0h3.96m3.96 0h3.96m3.96 0h3.95m3.97 0h3.96m3.96 0h3.95m3.96 0h3.97m3.96 0h3.96m3.95 0h3.96m3.97 0h3.95m3.96 0h3.96m3.96 0h3.96m3.96 0h1.98l.94-.07.9-.22.45-.17m3.23-3.24l.18-.44.23-.92.07-.94v-2.26m0-4.53v-4.52m0-4.53v-2.26" stroke="#3a414a" fill="none"/><path d="M-1449.53 218.2h-.94v-.5h.94z" stroke="#3a414a" stroke-width=".05" fill="#3a414a"/><path d="M-1050 142l7.5 13h-15z" stroke="#3a414a" fill="#fff"/><path d="M-970 218.5v-2.03m0-4.06v-4.06m0-4.06v-4.06m0-4.06v-4.07m0-4.07V186l-.07-.94-.22-.9-.17-.45m-3.24-3.23l-.45-.18-.9-.23-.95-.07h-1.9m-3.77 0h-3.77m-3.78 0H-993m-3.78 0h-3.78m-3.77 0h-3.78m-3.8 0h-3.77m-3.77 0h-3.78m-3.78 0h-3.78m-3.78 0h-3.77m-3.78 0h-1.9l-.94-.07-.9-.22-.45-.17m-3.23-3.24l-.18-.45-.23-.9-.07-.95v-2.3m0-4.64v-4.63m0-4.63v-2.3" stroke="#3a414a" fill="none"/><path d="M-969.52 219h-.96v-.5h.96z" stroke="#3a414a" stroke-width=".05" fill="#3a414a"/><path d="M-1050 142l7.5 13h-15z" stroke="#3a414a" fill="#fff"/><path d="M-1210 218.5v-2.03m0-4.06v-4.06m0-4.06v-4.06m0-4.06v-4.07m0-4.07V186l.07-.94.22-.9.17-.45m3.24-3.23l.45-.18.9-.23.95-.07h1.95m3.9 0h3.9m3.88 0h3.9m3.9 0h3.9m3.88 0h3.9m3.9 0h3.9m3.9 0h3.88m3.9 0h3.9m3.9 0h3.88m3.9 0h3.9m3.9 0h3.88m3.9 0h3.9m3.9 0h3.88m3.9 0h3.9m3.88 0h3.9m3.9 0h3.9m3.88 0h3.9m3.9 0h3.9m3.88 0h3.9m3.9 0h1.94l.94-.07.9-.22.45-.17m3.23-3.24l.18-.45.23-.9.07-.95v-2.3m0-4.64v-4.63m0-4.63v-2.3" stroke="#3a414a" fill="none"/><path d="M-1209.53 219h-.94v-.5h.94z" stroke="#3a414a" stroke-width=".05" fill="#3a414a"/><path d="M-1050 142l7.5 13h-15z" stroke="#3a414a" fill="#fff"/><path d="M-708.13 246.6a7.26 7.26 0 0 0 7.13 5.88h55a6 6 0 0 1 6 6v82a6 6 0 0 1-6 6h-168a6 6 0 0 1-6-6v-108a6 6 0 0 1 6-6h96a7.26 7.26 0 0 1 7.13 5.9zM-820 252.47h113" stroke="#000" stroke-width="2" fill="#fff"/><use xlink:href="#p" transform="matrix(1,0,0,1,-812,226.483735707267) translate(0 21.52777777777778)"/><use xlink:href="#q" transform="matrix(1,0,0,1,-808,260.483735707267) translate(0 47.083767361111114)"/><path d="M-468.13 246.6a7.26 7.26 0 0 0 7.13 5.88h55a6 6 0 0 1 6 6v82a6 6 0 0 1-6 6h-168a6 6 0 0 1-6-6v-108a6 6 0 0 1 6-6h96a7.26 7.26 0 0 1 7.13 5.9zM-580 252.47h113" stroke="#000" stroke-width="2" fill="#fff"/><use xlink:href="#p" transform="matrix(1,0,0,1,-572,226.483735707267) translate(0 21.52777777777778)"/><use xlink:href="#r" transform="matrix(1,0,0,1,-568,260.483735707267) translate(0 47.083767361111114)"/><path d="M-228.13 246.6a7.26 7.26 0 0 0 7.13 5.88h55a6 6 0 0 1 6 6v82a6 6 0 0 1-6 6h-168a6 6 0 0 1-6-6v-108a6 6 0 0 1 6-6h96a7.26 7.26 0 0 1 7.13 5.9zM-340 252.47h113" stroke="#000" stroke-width="2" fill="#fff"/><use xlink:href="#p" transform="matrix(1,0,0,1,-332,226.483735707267) translate(0 21.52777777777778)"/><use xlink:href="#s" transform="matrix(1,0,0,1,-328,260.483735707267) translate(0 47.083767361111114)"/><path d="M11.87 246.6a7.26 7.26 0 0 0 7.13 5.88h55a6 6 0 0 1 6 6v82a6 6 0 0 1-6 6H-94a6 6 0 0 1-6-6v-108a6 6 0 0 1 6-6H2a7.26 7.26 0 0 1 7.13 5.9zM-100 252.47H13" stroke="#000" stroke-width="2" fill="#fff"/><use xlink:href="#p" transform="matrix(1,0,0,1,-92,226.483735707267) translate(0 21.52777777777778)"/><use xlink:href="#t" transform="matrix(1,0,0,1,-88,260.483735707267) translate(0 47.083767361111114)"/><path d="M251.87 246.6a7.26 7.26 0 0 0 7.13 5.88h55a6 6 0 0 1 6 6v82a6 6 0 0 1-6 6H146a6 6 0 0 1-6-6v-108a6 6 0 0 1 6-6h96a7.26 7.26 0 0 1 7.13 5.9zM140 252.47h113" stroke="#000" stroke-width="2" fill="#fff"/><use xlink:href="#p" transform="matrix(1,0,0,1,148,226.483735707267) translate(0 21.52777777777778)"/><use xlink:href="#u" transform="matrix(1,0,0,1,152,260.483735707267) translate(0 47.083767361111114)"/><path d="M-730 224.98v-2.23m0-4.47v-4.47m0-4.45v-4.47m0-4.47v-4.46m0-4.46v-2.24l.07-.94.22-.9.17-.45m3.24-3.23l.45-.18.9-.22.95-.08h2.04m4.1 0h4.07m4.1 0h4.1m4.07 0h4.08m4.1 0h4.08m4.08 0h4.1m4.08 0h4.1m4.07 0h4.1m4.07 0h4.1m4.08 0h4.08m4.1 0h4.07m4.1 0h4.07m4.1 0h4.07m4.08 0h4.08m4.1 0h4.07m4.1 0h4.08m4.1 0h4.08m4.08 0h4.1m4.07 0h4.1m4.07 0h4.1m4.08 0h4.08m4.1 0h2.03l.93-.07.9-.22.45-.18m3.24-3.24l.17-.43.22-.92.07-.94v-1.8m0-3.64v-3.62m0-3.63v-3.62m0-3.63v-1.8" stroke="#3a414a" fill="none"/><path d="M-729.52 225.48h-.96v-.5h.96z" stroke="#3a414a" stroke-width=".05" fill="#3a414a"/><path d="M-546.4 142l7.5 13h-15z" stroke="#3a414a" fill="#fff"/><path d="M230 224.98v-2.23m0-4.47v-4.47m0-4.45v-4.47m0-4.47v-4.46m0-4.46v-2.24l-.07-.94-.22-.9-.17-.45m-3.24-3.23l-.45-.18-.9-.22-.95-.08h-2m-3.97 0h-3.98m-4 0h-3.97m-3.98 0h-3.98m-3.98 0h-3.98m-3.98 0h-3.98m-3.98 0h-4m-3.97 0h-3.98m-3.98 0h-4m-3.97 0h-3.98m-4 0h-3.97m-3.98 0h-3.98m-3.98 0h-3.98m-3.98 0h-3.98m-4 0h-3.97m-3.98 0h-3.98m-3.98 0h-4m-3.97 0h-3.98m-4 0H78.7m-3.98 0h-3.98m-3.98 0h-3.98m-3.98 0h-4m-3.97 0h-3.97m-3.98 0h-3.98m-3.98 0h-4m-3.97 0h-4m-3.97 0h-3.98m-3.98 0H7.02m-3.98 0H-.94m-3.98 0h-4m-3.97 0h-3.97m-3.98 0h-3.98m-3.98 0h-4m-3.98 0h-3.98m-3.98 0h-3.98m-3.98 0h-3.98m-3.98 0h-3.98m-4 0h-3.97m-4 0h-3.97m-3.98 0h-3.98m-3.98 0h-4m-3.98 0h-3.98m-3.98 0h-3.98m-3.98 0h-3.98m-3.98 0h-4m-3.97 0h-3.98m-4 0h-3.97m-3.98 0h-3.98m-4 0h-3.97m-3.98 0h-3.98m-3.98 0h-3.98m-3.98 0h-3.98m-3.98 0h-4m-3.97 0H-200m-4 0h-3.97m-3.98 0h-4m-3.97 0h-3.98m-3.98 0h-3.98m-3.98 0h-3.98m-3.98 0h-3.98m-4 0h-3.97m-3.98 0h-3.98m-4 0h-3.97m-3.98 0h-4m-3.97 0h-3.98m-3.98 0h-3.98m-3.98 0h-3.98m-4 0h-3.97m-3.97 0h-3.98m-3.98 0h-3.98m-4 0h-3.97m-4 0h-3.97m-3.98 0h-3.98m-3.98 0h-3.98m-3.98 0h-3.98m-4 0h-3.97m-3.97 0h-3.98m-3.98 0h-3.98m-4 0h-3.97m-4 0h-3.97m-3.98 0H-415m-3.98 0h-3.98m-3.98 0h-4m-3.97 0h-4m-3.97 0h-3.98m-3.98 0h-3.98m-4 0h-3.98m-3.98 0h-3.98m-3.98 0h-3.98m-3.98 0h-3.98m-3.98 0h-4m-3.97 0h-4m-3.97 0h-3.98m-3.98 0h-3.98m-4 0h-3.98m-3.98 0h-3.98m-3.98 0h-2l-.93-.07-.9-.22-.45-.18m-3.24-3.24l-.18-.43-.22-.92-.07-.94v-1.8m0-3.64v-3.62m0-3.63v-3.62m0-3.63v-1.8" stroke="#3a414a" fill="none"/><path d="M230.47 225.48h-.94v-.5h.94z" stroke="#3a414a" stroke-width=".05" fill="#3a414a"/><path d="M-546.4 142l7.5 13h-15z" stroke="#3a414a" fill="#fff"/><path d="M-10 224.98v-2.23m0-4.47v-4.47m0-4.45v-4.47m0-4.47v-4.46m0-4.46v-2.24l-.07-.94-.22-.9-.17-.45m-3.24-3.23l-.45-.18-.9-.22-.95-.08h-2m-3.96 0h-3.97m-3.98 0h-3.98m-3.97 0h-3.97m-3.98 0h-3.97m-3.97 0h-3.98m-3.97 0h-3.96m-3.97 0h-3.98m-3.98 0h-3.97m-3.97 0h-3.98m-3.97 0h-3.97m-3.98 0h-3.97m-3.96 0h-3.97m-3.98 0h-3.98m-3.97 0h-3.97m-3.98 0h-3.97m-3.97 0h-3.98m-3.97 0h-3.96m-3.97 0H-161m-3.98 0h-3.97m-3.98 0h-3.97m-3.97 0h-3.97m-3.98 0h-3.97m-3.96 0h-3.98m-3.97 0h-3.98m-3.97 0h-3.98m-3.97 0h-3.97m-3.97 0h-3.98m-3.97 0h-3.96m-3.98 0h-3.97m-3.98 0h-3.98m-3.97 0h-3.97m-3.97 0h-3.98m-3.97 0h-3.97m-3.97 0h-3.97m-3.97 0h-3.98m-3.98 0h-3.97m-3.97 0h-3.97m-3.98 0h-3.97m-3.97 0h-3.97m-3.97 0h-3.97m-3.98 0h-3.98m-3.97 0h-3.97m-3.98 0h-3.97m-3.97 0h-3.97m-3.97 0h-3.97m-3.97 0h-4m-3.96 0h-3.97m-3.97 0h-3.98m-3.97 0h-3.97m-3.98 0h-3.97m-3.97 0h-3.97m-4 0h-3.96m-3.97 0h-3.97m-3.98 0h-3.97m-3.97 0H-455m-3.97 0h-3.97m-3.97 0h-4m-3.96 0h-3.97m-3.98 0h-3.98m-3.97 0h-3.97m-3.98 0h-3.97m-3.97 0h-3.98m-3.97 0h-3.96m-3.97 0h-3.98m-3.98 0h-3.97m-3.97 0h-2l-.93-.07-.9-.22-.45-.18m-3.24-3.24l-.18-.43-.22-.92-.07-.94v-1.8m0-3.64v-3.62m0-3.63v-3.62m0-3.63v-1.8" stroke="#3a414a" fill="none"/><path d="M-9.53 225.48h-.95v-.5h.96z" stroke="#3a414a" stroke-width=".05" fill="#3a414a"/><path d="M-546.4 142l7.5 13h-15z" stroke="#3a414a" fill="#fff"/><path d="M-250 224.98v-2.23m0-4.47v-4.47m0-4.45v-4.47m0-4.47v-4.46m0-4.46v-2.24l-.07-.94-.22-.9-.17-.45m-3.24-3.23l-.45-.18-.9-.22-.95-.08h-1.98m-3.94 0h-3.95m-3.96 0h-3.95m-3.95 0h-3.95m-3.95 0h-3.95m-3.95 0h-3.95m-3.95 0h-3.95m-3.95 0h-3.95m-3.95 0h-3.95m-3.95 0h-3.95m-3.95 0h-3.95m-3.95 0h-3.95m-3.95 0h-3.95m-3.95 0h-3.95m-3.95 0h-3.95m-3.95 0h-3.95m-3.95 0h-3.95m-3.95 0h-3.95m-3.95 0h-3.95m-3.95 0h-3.95m-3.95 0h-3.95m-3.95 0h-3.95m-3.95 0h-3.95m-3.95 0h-3.95m-3.95 0h-3.95m-3.95 0h-3.95m-3.95 0h-3.95m-3.95 0h-3.95m-3.95 0h-3.95m-3.95 0h-3.95m-3.95 0h-3.95m-3.95 0h-3.95m-3.95 0h-3.96m-3.94 0h-3.94m-3.96 0h-3.95m-3.94 0h-3.95m-3.94 0h-1.97l-.95-.07-.9-.22-.45-.18m-3.24-3.24l-.18-.43-.22-.92-.07-.94v-1.8m0-3.64v-3.62m0-3.63v-3.62m0-3.63v-1.8" stroke="#3a414a" fill="none"/><path d="M-249.53 225.48h-.94v-.5h.94z" stroke="#3a414a" stroke-width=".05" fill="#3a414a"/><path d="M-546.4 142l7.5 13h-15z" stroke="#3a414a" fill="#fff"/><path d="M-490 224.98v-2.23m0-4.47v-4.47m0-4.45v-4.47m0-4.47v-4.46m0-4.46v-2.24l-.07-.94-.22-.9-.17-.45m-3.24-3.23l-.45-.18-.9-.22-.95-.08h-1.85m-3.7 0h-3.7m-3.7 0h-3.7m-3.7 0h-3.7m-3.7 0h-3.7m-3.7 0h-3.7m-3.7 0h-1.86l-.95-.07-.9-.22-.45-.18m-3.24-3.24l-.18-.43-.22-.92-.07-.94v-1.8m0-3.64v-3.62m0-3.63v-3.62m0-3.63v-1.8" stroke="#3a414a" fill="none"/><path d="M-489.52 225.48h-.96v-.5h.96z" stroke="#3a414a" stroke-width=".05" fill="#3a414a"/><path d="M-546.4 142l7.5 13h-15z" stroke="#3a414a" fill="#fff"/><defs><path d="M180 0v-1490h510c348 0 508 209 508 474 0 266-160 477-507 477H370V0H180zm190-706h312c236 0 327-133 327-310 0-176-91-307-329-307H370v617" id="v"/><path d="M471 26C259 26 90-98 90-318c0-256 228-303 435-329 202-27 287-16 287-108 0-139-79-219-234-219-161 0-248 86-283 164l-173-57c86-203 278-265 451-265 150 0 419 46 419 395V0H815v-152h-12C765-73 660 26 471 26zm31-159c199 0 310-134 310-271v-155c-30 35-226 55-295 64-131 17-246 59-246 186 0 116 97 176 231 176" id="w"/><path d="M613 24c-304 0-509-231-509-576 0-350 205-580 509-580 216 0 392 114 453 309l-173 49c-33-115-133-197-280-197-223 0-326 196-326 419 0 220 103 415 326 415 150 0 252-85 285-206l172 49C1010-95 832 24 613 24" id="x"/><path d="M158 0v-1490h180v865h22l478-493h223L593-638 1096 0H865L456-523 338-412V0H158" id="y"/><path d="M611 442c-248 0-391-105-460-228l146-94c47 65 117 165 314 165 178 0 307-82 307-266v-224h-17C863-141 792-18 576-18c-268 0-472-195-472-546 0-346 197-568 476-568 216 0 288 133 326 193h17v-179h175V29c0 289-215 413-487 413zm-5-620c203 0 314-146 314-390 0-237-108-403-314-403-213 0-319 180-319 403 0 230 109 390 319 390" id="z"/><path d="M628 24c-324 0-524-230-524-574 0-343 198-582 503-582 237 0 487 146 487 559v75H286c9 234 145 362 343 362 132 0 231-58 273-172l174 48C1024-91 857 24 628 24zM287-650h624c-17-190-120-322-304-322-192 0-309 151-320 322" id="A"/><g id="a"><use transform="matrix(0.010850694444444444,0,0,0.010850694444444444,0,0)" xlink:href="#v"/><use transform="matrix(0.010850694444444444,0,0,0.010850694444444444,14.192708333333332,0)" xlink:href="#w"/><use transform="matrix(0.010850694444444444,0,0,0.010850694444444444,26.671006944444443,0)" xlink:href="#x"/><use transform="matrix(0.010850694444444444,0,0,0.010850694444444444,39.36631944444444,0)" xlink:href="#y"/><use transform="matrix(0.010850694444444444,0,0,0.010850694444444444,51.5625,0)" xlink:href="#w"/><use transform="matrix(0.010850694444444444,0,0,0.010850694444444444,64.04079861111111,0)" xlink:href="#z"/><use transform="matrix(0.010850694444444444,0,0,0.010850694444444444,77.66927083333334,0)" xlink:href="#A"/></g><path d="M158 418v-1536h174v179h20c37-59 106-193 324-193 279 0 474 222 474 576 0 356-194 580-473 580-213 0-288-135-325-197h-14v591H158zm492-555c209 0 317-186 317-421 0-232-105-413-317-413-206 0-314 166-314 413 0 249 111 421 314 421" id="B"/><path d="M140 405l46-156c120 36 205 19 263-150l32-93L54-1118h197c107 313 237 620 324 950 87-331 219-637 326-950h196L606 167c-68 178-176 259-334 259-64 0-113-12-132-21" id="C"/><path d="M158 0v-1118h174v172h12c41-113 157-188 290-188 26 0 70 2 91 3v181c-11-2-60-10-108-10-161 0-279 109-279 260V0H158" id="D"/><path d="M537 14c-226 0-379-139-379-422v-710h180v695c0 172 97 275 253 275 160 0 281-109 281-300v-670h181V0H879v-209C806-46 684 14 537 14" id="E"/><path d="M538 24C308 24 148-78 108-271l171-41c32 123 123 178 257 178 156 0 256-77 256-169 0-77-54-128-164-154l-186-44c-203-48-300-148-300-305 0-192 176-326 414-326 230 0 351 112 402 269l-163 42c-31-80-94-158-238-158-133 0-233 69-233 162 0 83 57 129 188 160l169 40c203 48 298 149 298 302 0 196-179 339-441 339" id="F"/><g id="b"><use transform="matrix(0.010850694444444444,0,0,0.010850694444444444,0,0)" xlink:href="#B"/><use transform="matrix(0.010850694444444444,0,0,0.010850694444444444,13.823784722222221,0)" xlink:href="#w"/><use transform="matrix(0.010850694444444444,0,0,0.010850694444444444,26.302083333333332,0)" xlink:href="#B"/><use transform="matrix(0.010850694444444444,0,0,0.010850694444444444,39.474826388888886,0)" xlink:href="#C"/><use transform="matrix(0.010850694444444444,0,0,0.010850694444444444,51.96397569444444,0)" xlink:href="#D"/><use transform="matrix(0.010850694444444444,0,0,0.010850694444444444,60.32986111111111,0)" xlink:href="#E"/><use transform="matrix(0.010850694444444444,0,0,0.010850694444444444,73.47005208333333,0)" xlink:href="#F"/></g><path d="M338-1490V0H158v-1490h180" id="G"/><path d="M613 24c-304 0-509-231-509-576 0-350 205-580 509-580 305 0 511 230 511 580 0 345-206 576-511 576zm0-161c226 0 329-195 329-415 0-222-103-419-329-419-223 0-326 196-326 419 0 220 103 415 326 415" id="H"/><path d="M158 0v-1118h180V0H158zm91-1301c-68 0-125-53-125-119s57-119 125-119c69 0 126 53 126 119s-57 119-126 119" id="I"/><g id="c"><use transform="matrix(0.010850694444444444,0,0,0.010850694444444444,0,0)" xlink:href="#G"/><use transform="matrix(0.010850694444444444,0,0,0.010850694444444444,5.381944444444445,0)" xlink:href="#H"/><use transform="matrix(0.010850694444444444,0,0,0.010850694444444444,18.70659722222222,0)" xlink:href="#z"/><use transform="matrix(0.010850694444444444,0,0,0.010850694444444444,32.33506944444444,0)" xlink:href="#I"/><use transform="matrix(0.010850694444444444,0,0,0.010850694444444444,37.717013888888886,0)" xlink:href="#x"/></g><path d="M577 24c-279 0-473-224-473-580 0-354 195-576 474-576 218 0 287 134 324 193h14v-551h180V0H922v-173h-20C865-111 790 24 577 24zm27-161c203 0 314-172 314-421 0-247-108-413-314-413-212 0-317 181-317 413 0 235 108 421 317 421" id="J"/><g id="d"><use transform="matrix(0.010850694444444444,0,0,0.010850694444444444,0,0)" xlink:href="#J"/><use transform="matrix(0.010850694444444444,0,0,0.010850694444444444,13.606770833333332,0)" xlink:href="#F"/><use transform="matrix(0.010850694444444444,0,0,0.010850694444444444,25.33637152777778,0)" xlink:href="#G"/></g><path d="M677 24c-213 0-288-135-325-197h-20V0H158v-1490h180v551h14c37-59 106-193 324-193 279 0 474 222 474 576 0 356-194 580-473 580zm-27-161c209 0 317-186 317-421 0-232-105-413-317-413-206 0-314 166-314 413 0 249 111 421 314 421" id="K"/><g id="e"><use transform="matrix(0.010850694444444444,0,0,0.010850694444444444,0,0)" xlink:href="#K"/><use transform="matrix(0.010850694444444444,0,0,0.010850694444444444,13.606770833333332,0)" xlink:href="#E"/><use transform="matrix(0.010850694444444444,0,0,0.010850694444444444,26.746961805555554,0)" xlink:href="#I"/><use transform="matrix(0.010850694444444444,0,0,0.010850694444444444,32.12890625,0)" xlink:href="#G"/><use transform="matrix(0.010850694444444444,0,0,0.010850694444444444,37.51085069444444,0)" xlink:href="#J"/><use transform="matrix(0.010850694444444444,0,0,0.010850694444444444,51.11762152777778,0)" xlink:href="#A"/><use transform="matrix(0.010850694444444444,0,0,0.010850694444444444,64.07335069444444,0)" xlink:href="#D"/></g><path d="M338-670V0H158v-1118h173l1 207c72-158 192-221 342-221 226 0 378 139 378 422V0H872v-695c0-172-96-275-252-275-161 0-282 109-282 300" id="L"/><path d="M598-1118v154H368v674c0 100 37 144 132 144 23 0 62-6 92-12L629-6c-37 13-88 20-134 20-193 0-307-107-307-290v-688H20v-154h168v-266h180v266h230" id="M"/><g id="f"><use transform="matrix(0.010850694444444444,0,0,0.010850694444444444,0,0)" xlink:href="#x"/><use transform="matrix(0.010850694444444444,0,0,0.010850694444444444,12.6953125,0)" xlink:href="#H"/><use transform="matrix(0.010850694444444444,0,0,0.010850694444444444,26.01996527777778,0)" xlink:href="#L"/><use transform="matrix(0.010850694444444444,0,0,0.010850694444444444,39.14930555555556,0)" xlink:href="#M"/><use transform="matrix(0.010850694444444444,0,0,0.010850694444444444,46.20225694444445,0)" xlink:href="#A"/><use transform="matrix(0.010850694444444444,0,0,0.010850694444444444,59.15798611111112,0)" xlink:href="#L"/><use transform="matrix(0.010850694444444444,0,0,0.010850694444444444,72.28732638888889,0)" xlink:href="#M"/></g><path d="M180 0v-1490h908v168H370v486h669v168H370v500h727V0H180" id="N"/><path d="M158 0v-1118h175l1 205c55-151 181-225 313-225 147 0 245 90 285 228 53-141 190-228 352-228 194 0 352 125 352 384V0h-181v-749c0-161-105-225-225-225-151 0-243 103-243 244V0H807v-767c0-124-93-207-219-207-131 0-250 92-250 270V0H158" id="O"/><g id="g"><use transform="matrix(0.010850694444444444,0,0,0.010850694444444444,0,0)" xlink:href="#G"/><use transform="matrix(0.010850694444444444,0,0,0.010850694444444444,5.381944444444445,0)" xlink:href="#w"/><use transform="matrix(0.010850694444444444,0,0,0.010850694444444444,17.53472222222222,0)" xlink:href="#C"/><use transform="matrix(0.010850694444444444,0,0,0.010850694444444444,29.58984375,0)" xlink:href="#A"/><use transform="matrix(0.010850694444444444,0,0,0.010850694444444444,42.545572916666664,0)" xlink:href="#D"/><use transform="matrix(0.010850694444444444,0,0,0.010850694444444444,51.25868055555556,0)" xlink:href="#N"/><use transform="matrix(0.010850694444444444,0,0,0.010850694444444444,64.61588541666666,0)" xlink:href="#G"/><use transform="matrix(0.010850694444444444,0,0,0.010850694444444444,69.9978298611111,0)" xlink:href="#A"/><use transform="matrix(0.010850694444444444,0,0,0.010850694444444444,82.95355902777777,0)" xlink:href="#O"/><use transform="matrix(0.010850694444444444,0,0,0.010850694444444444,102.41970486111111,0)" xlink:href="#A"/><use transform="matrix(0.010850694444444444,0,0,0.010850694444444444,115.37543402777777,0)" xlink:href="#L"/><use transform="matrix(0.010850694444444444,0,0,0.010850694444444444,128.50477430555554,0)" xlink:href="#M"/></g><g id="h"><use transform="matrix(0.010850694444444444,0,0,0.010850694444444444,0,0)" xlink:href="#O"/><use transform="matrix(0.010850694444444444,0,0,0.010850694444444444,19.466145833333332,0)" xlink:href="#A"/><use transform="matrix(0.010850694444444444,0,0,0.010850694444444444,32.421875,0)" xlink:href="#M"/><use transform="matrix(0.010850694444444444,0,0,0.010850694444444444,39.80034722222222,0)" xlink:href="#w"/><use transform="matrix(0.010850694444444444,0,0,0.010850694444444444,52.27864583333333,0)" xlink:href="#J"/><use transform="matrix(0.010850694444444444,0,0,0.010850694444444444,65.88541666666666,0)" xlink:href="#w"/><use transform="matrix(0.010850694444444444,0,0,0.010850694444444444,78.36371527777777,0)" xlink:href="#M"/><use transform="matrix(0.010850694444444444,0,0,0.010850694444444444,85.74218749999999,0)" xlink:href="#w"/></g><path d="M784 20c-382 0-662-292-662-764 0-473 280-766 662-766s660 293 660 766c0 472-278 764-660 764zm0-176c266 0 475-207 475-588 0-383-209-590-475-590-268 0-477 208-477 590 0 380 209 588 477 588" id="P"/><path d="M157-1118h181V80c1 225-123 350-364 338V252c126 9 184-48 183-172v-1198zm91-183c-68 0-125-53-125-119s57-119 125-119c69 0 126 53 126 119s-57 119-126 119" id="Q"/><g id="i"><use transform="matrix(0.010850694444444444,0,0,0.010850694444444444,0,0)" xlink:href="#F"/><use transform="matrix(0.010850694444444444,0,0,0.010850694444444444,11.729600694444445,0)" xlink:href="#M"/><use transform="matrix(0.010850694444444444,0,0,0.010850694444444444,19.43359375,0)" xlink:href="#C"/><use transform="matrix(0.010850694444444444,0,0,0.010850694444444444,32.03125,0)" xlink:href="#G"/><use transform="matrix(0.010850694444444444,0,0,0.010850694444444444,37.41319444444444,0)" xlink:href="#A"/><use transform="matrix(0.010850694444444444,0,0,0.010850694444444444,50.36892361111111,0)" xlink:href="#P"/><use transform="matrix(0.010850694444444444,0,0,0.010850694444444444,67.36111111111111,0)" xlink:href="#K"/><use transform="matrix(0.010850694444444444,0,0,0.010850694444444444,80.96788194444444,0)" xlink:href="#Q"/><use transform="matrix(0.010850694444444444,0,0,0.010850694444444444,86.34982638888889,0)" xlink:href="#A"/><use transform="matrix(0.010850694444444444,0,0,0.010850694444444444,99.30555555555556,0)" xlink:href="#x"/><use transform="matrix(0.010850694444444444,0,0,0.010850694444444444,112.00086805555556,0)" xlink:href="#M"/><use transform="matrix(0.010850694444444444,0,0,0.010850694444444444,119.05381944444444,0)" xlink:href="#F"/></g><g id="j"><use transform="matrix(0.010850694444444444,0,0,0.010850694444444444,0,0)" xlink:href="#E"/><use transform="matrix(0.010850694444444444,0,0,0.010850694444444444,13.140190972222221,0)" xlink:href="#M"/><use transform="matrix(0.010850694444444444,0,0,0.010850694444444444,20.41015625,0)" xlink:href="#I"/><use transform="matrix(0.010850694444444444,0,0,0.010850694444444444,25.792100694444443,0)" xlink:href="#G"/><use transform="matrix(0.010850694444444444,0,0,0.010850694444444444,31.17404513888889,0)" xlink:href="#I"/><use transform="matrix(0.010850694444444444,0,0,0.010850694444444444,36.55598958333333,0)" xlink:href="#M"/><use transform="matrix(0.010850694444444444,0,0,0.010850694444444444,44.259982638888886,0)" xlink:href="#C"/></g><g id="k"><use transform="matrix(0.010850694444444444,0,0,0.010850694444444444,0,0)" xlink:href="#x"/><use transform="matrix(0.010850694444444444,0,0,0.010850694444444444,12.91232638888889,0)" xlink:href="#w"/><use transform="matrix(0.010850694444444444,0,0,0.010850694444444444,25.390625,0)" xlink:href="#B"/><use transform="matrix(0.010850694444444444,0,0,0.010850694444444444,38.99739583333333,0)" xlink:href="#M"/><use transform="matrix(0.010850694444444444,0,0,0.010850694444444444,46.26736111111111,0)" xlink:href="#I"/><use transform="matrix(0.010850694444444444,0,0,0.010850694444444444,51.64930555555556,0)" xlink:href="#H"/><use transform="matrix(0.010850694444444444,0,0,0.010850694444444444,64.97395833333333,0)" xlink:href="#L"/><use transform="matrix(0.010850694444444444,0,0,0.010850694444444444,78.1032986111111,0)" xlink:href="#N"/><use transform="matrix(0.010850694444444444,0,0,0.010850694444444444,91.46050347222221,0)" xlink:href="#G"/><use transform="matrix(0.010850694444444444,0,0,0.010850694444444444,96.84244791666666,0)" xlink:href="#A"/><use transform="matrix(0.010850694444444444,0,0,0.010850694444444444,109.79817708333333,0)" xlink:href="#O"/><use transform="matrix(0.010850694444444444,0,0,0.010850694444444444,129.26432291666666,0)" xlink:href="#A"/><use transform="matrix(0.010850694444444444,0,0,0.010850694444444444,142.22005208333331,0)" xlink:href="#L"/><use transform="matrix(0.010850694444444444,0,0,0.010850694444444444,155.3493923611111,0)" xlink:href="#M"/></g><g id="l"><use transform="matrix(0.010850694444444444,0,0,0.010850694444444444,0,0)" xlink:href="#F"/><use transform="matrix(0.010850694444444444,0,0,0.010850694444444444,11.729600694444445,0)" xlink:href="#A"/><use transform="matrix(0.010850694444444444,0,0,0.010850694444444444,24.68532986111111,0)" xlink:href="#x"/><use transform="matrix(0.010850694444444444,0,0,0.010850694444444444,37.380642361111114,0)" xlink:href="#M"/><use transform="matrix(0.010850694444444444,0,0,0.010850694444444444,44.6506076388889,0)" xlink:href="#I"/><use transform="matrix(0.010850694444444444,0,0,0.010850694444444444,50.03255208333333,0)" xlink:href="#H"/><use transform="matrix(0.010850694444444444,0,0,0.010850694444444444,63.35720486111112,0)" xlink:href="#L"/></g><path d="M65 0l393-574-370-544h210c88 136 192 297 267 435 67-142 176-302 264-435h206L661-564 1053 0H844c-94-144-206-310-287-458C484-308 366-142 273 0H65" id="R"/><g id="m"><use transform="matrix(0.010850694444444444,0,0,0.010850694444444444,0,0)" xlink:href="#M"/><use transform="matrix(0.010850694444444444,0,0,0.010850694444444444,7.052951388888888,0)" xlink:href="#A"/><use transform="matrix(0.010850694444444444,0,0,0.010850694444444444,19.50954861111111,0)" xlink:href="#R"/><use transform="matrix(0.010850694444444444,0,0,0.010850694444444444,32.07465277777778,0)" xlink:href="#M"/></g><path d="M180 0v-1490h190v644h782v-644h190V0h-190v-678H370V0H180" id="S"/><path d="M783 20c-382 0-661-292-661-764 0-473 279-766 661-766 302 0 548 182 601 489h-190c-42-204-217-313-411-313-268 0-476 208-476 590 0 381 209 588 476 588 195 0 369-110 411-313h190c-52 303-296 489-601 489" id="T"/><path d="M481 0L54-1118h197c107 314 236 620 325 951 87-331 217-637 324-951h197L670 0H481" id="U"/><g id="n"><use transform="matrix(0.010850694444444444,0,0,0.010850694444444444,0,0)" xlink:href="#S"/><use transform="matrix(0.010850694444444444,0,0,0.010850694444444444,16.840277777777775,0)" xlink:href="#M"/><use transform="matrix(0.010850694444444444,0,0,0.010850694444444444,24.110243055555554,0)" xlink:href="#O"/><use transform="matrix(0.010850694444444444,0,0,0.010850694444444444,43.576388888888886,0)" xlink:href="#G"/><use transform="matrix(0.010850694444444444,0,0,0.010850694444444444,48.95833333333333,0)" xlink:href="#T"/><use transform="matrix(0.010850694444444444,0,0,0.010850694444444444,65.19097222222221,0)" xlink:href="#H"/><use transform="matrix(0.010850694444444444,0,0,0.010850694444444444,78.51562499999999,0)" xlink:href="#L"/><use transform="matrix(0.010850694444444444,0,0,0.010850694444444444,91.31944444444441,0)" xlink:href="#U"/><use transform="matrix(0.010850694444444444,0,0,0.010850694444444444,103.37456597222221,0)" xlink:href="#A"/><use transform="matrix(0.010850694444444444,0,0,0.010850694444444444,116.33029513888889,0)" xlink:href="#D"/><use transform="matrix(0.010850694444444444,0,0,0.010850694444444444,125.0434027777778,0)" xlink:href="#M"/><use transform="matrix(0.010850694444444444,0,0,0.010850694444444444,132.31336805555557,0)" xlink:href="#I"/><use transform="matrix(0.010850694444444444,0,0,0.010850694444444444,137.69531250000003,0)" xlink:href="#H"/><use transform="matrix(0.010850694444444444,0,0,0.010850694444444444,151.0199652777778,0)" xlink:href="#L"/></g><g id="o"><use transform="matrix(0.010850694444444444,0,0,0.010850694444444444,0,0)" xlink:href="#B"/><use transform="matrix(0.010850694444444444,0,0,0.010850694444444444,13.606770833333332,0)" xlink:href="#D"/><use transform="matrix(0.010850694444444444,0,0,0.010850694444444444,21.603732638888886,0)" xlink:href="#H"/><use transform="matrix(0.010850694444444444,0,0,0.010850694444444444,34.928385416666664,0)" xlink:href="#G"/><use transform="matrix(0.010850694444444444,0,0,0.010850694444444444,40.31032986111111,0)" xlink:href="#H"/><use transform="matrix(0.010850694444444444,0,0,0.010850694444444444,53.634982638888886,0)" xlink:href="#z"/></g><g id="p"><use transform="matrix(0.010850694444444444,0,0,0.010850694444444444,0,0)" xlink:href="#v"/><use transform="matrix(0.010850694444444444,0,0,0.010850694444444444,14.192708333333332,0)" xlink:href="#w"/><use transform="matrix(0.010850694444444444,0,0,0.010850694444444444,26.671006944444443,0)" xlink:href="#x"/><use transform="matrix(0.010850694444444444,0,0,0.010850694444444444,39.36631944444444,0)" xlink:href="#y"/><use transform="matrix(0.010850694444444444,0,0,0.010850694444444444,51.5625,0)" xlink:href="#w"/><use transform="matrix(0.010850694444444444,0,0,0.010850694444444444,64.04079861111111,0)" xlink:href="#z"/><use transform="matrix(0.010850694444444444,0,0,0.010850694444444444,77.66927083333334,0)" xlink:href="#A"/></g><path d="M180 0v-1490h528c311 0 458 177 458 395 0 191-114 278-244 313v14c139 9 302 137 302 371 0 225-148 397-499 397H180zm190-168h350c232 0 321-102 321-231 0-149-120-277-311-277H370v508zm0-668h328c160 0 286-101 286-255 0-129-87-231-280-231H370v486" id="V"/><g id="q"><use transform="matrix(0.010850694444444444,0,0,0.010850694444444444,0,0)" xlink:href="#G"/><use transform="matrix(0.010850694444444444,0,0,0.010850694444444444,5.381944444444445,0)" xlink:href="#I"/><use transform="matrix(0.010850694444444444,0,0,0.010850694444444444,10.76388888888889,0)" xlink:href="#F"/><use transform="matrix(0.010850694444444444,0,0,0.010850694444444444,22.493489583333336,0)" xlink:href="#M"/><use transform="matrix(0.010850694444444444,0,0,0.010850694444444444,29.763454861111114,0)" xlink:href="#V"/><use transform="matrix(0.010850694444444444,0,0,0.010850694444444444,44.30338541666667,0)" xlink:href="#E"/><use transform="matrix(0.010850694444444444,0,0,0.010850694444444444,57.4435763888889,0)" xlink:href="#I"/><use transform="matrix(0.010850694444444444,0,0,0.010850694444444444,62.82552083333333,0)" xlink:href="#G"/><use transform="matrix(0.010850694444444444,0,0,0.010850694444444444,68.20746527777779,0)" xlink:href="#J"/><use transform="matrix(0.010850694444444444,0,0,0.010850694444444444,81.81423611111111,0)" xlink:href="#A"/><use transform="matrix(0.010850694444444444,0,0,0.010850694444444444,94.7699652777778,0)" xlink:href="#D"/></g><g id="r"><use transform="matrix(0.010850694444444444,0,0,0.010850694444444444,0,0)" xlink:href="#O"/><use transform="matrix(0.010850694444444444,0,0,0.010850694444444444,19.466145833333332,0)" xlink:href="#A"/><use transform="matrix(0.010850694444444444,0,0,0.010850694444444444,32.421875,0)" xlink:href="#M"/><use transform="matrix(0.010850694444444444,0,0,0.010850694444444444,39.80034722222222,0)" xlink:href="#w"/><use transform="matrix(0.010850694444444444,0,0,0.010850694444444444,52.27864583333333,0)" xlink:href="#J"/><use transform="matrix(0.010850694444444444,0,0,0.010850694444444444,65.88541666666666,0)" xlink:href="#w"/><use transform="matrix(0.010850694444444444,0,0,0.010850694444444444,78.36371527777777,0)" xlink:href="#M"/><use transform="matrix(0.010850694444444444,0,0,0.010850694444444444,85.74218749999999,0)" xlink:href="#w"/><use transform="matrix(0.010850694444444444,0,0,0.010850694444444444,98.22048611111111,0)" xlink:href="#V"/><use transform="matrix(0.010850694444444444,0,0,0.010850694444444444,112.76041666666666,0)" xlink:href="#E"/><use transform="matrix(0.010850694444444444,0,0,0.010850694444444444,125.90060763888889,0)" xlink:href="#I"/><use transform="matrix(0.010850694444444444,0,0,0.010850694444444444,131.28255208333334,0)" xlink:href="#G"/><use transform="matrix(0.010850694444444444,0,0,0.010850694444444444,136.6644965277778,0)" xlink:href="#J"/><use transform="matrix(0.010850694444444444,0,0,0.010850694444444444,150.27126736111114,0)" xlink:href="#A"/><use transform="matrix(0.010850694444444444,0,0,0.010850694444444444,163.2269965277778,0)" xlink:href="#D"/></g><g id="s"><use transform="matrix(0.010850694444444444,0,0,0.010850694444444444,0,0)" xlink:href="#F"/><use transform="matrix(0.010850694444444444,0,0,0.010850694444444444,11.729600694444445,0)" xlink:href="#A"/><use transform="matrix(0.010850694444444444,0,0,0.010850694444444444,24.68532986111111,0)" xlink:href="#x"/><use transform="matrix(0.010850694444444444,0,0,0.010850694444444444,37.380642361111114,0)" xlink:href="#M"/><use transform="matrix(0.010850694444444444,0,0,0.010850694444444444,44.6506076388889,0)" xlink:href="#I"/><use transform="matrix(0.010850694444444444,0,0,0.010850694444444444,50.03255208333333,0)" xlink:href="#H"/><use transform="matrix(0.010850694444444444,0,0,0.010850694444444444,63.35720486111112,0)" xlink:href="#L"/><use transform="matrix(0.010850694444444444,0,0,0.010850694444444444,76.48654513888889,0)" xlink:href="#V"/><use transform="matrix(0.010850694444444444,0,0,0.010850694444444444,91.02647569444444,0)" xlink:href="#E"/><use transform="matrix(0.010850694444444444,0,0,0.010850694444444444,104.16666666666666,0)" xlink:href="#I"/><use transform="matrix(0.010850694444444444,0,0,0.010850694444444444,109.54861111111111,0)" xlink:href="#G"/><use transform="matrix(0.010850694444444444,0,0,0.010850694444444444,114.93055555555556,0)" xlink:href="#J"/><use transform="matrix(0.010850694444444444,0,0,0.010850694444444444,128.53732638888889,0)" xlink:href="#A"/><use transform="matrix(0.010850694444444444,0,0,0.010850694444444444,141.49305555555554,0)" xlink:href="#D"/></g><g id="t"><use transform="matrix(0.010850694444444444,0,0,0.010850694444444444,0,0)" xlink:href="#M"/><use transform="matrix(0.010850694444444444,0,0,0.010850694444444444,7.378472222222222,0)" xlink:href="#w"/><use transform="matrix(0.010850694444444444,0,0,0.010850694444444444,19.856770833333332,0)" xlink:href="#K"/><use transform="matrix(0.010850694444444444,0,0,0.010850694444444444,33.463541666666664,0)" xlink:href="#G"/><use transform="matrix(0.010850694444444444,0,0,0.010850694444444444,38.84548611111111,0)" xlink:href="#A"/><use transform="matrix(0.010850694444444444,0,0,0.010850694444444444,51.80121527777778,0)" xlink:href="#V"/><use transform="matrix(0.010850694444444444,0,0,0.010850694444444444,66.34114583333333,0)" xlink:href="#E"/><use transform="matrix(0.010850694444444444,0,0,0.010850694444444444,79.48133680555554,0)" xlink:href="#I"/><use transform="matrix(0.010850694444444444,0,0,0.010850694444444444,84.86328124999999,0)" xlink:href="#G"/><use transform="matrix(0.010850694444444444,0,0,0.010850694444444444,90.24522569444441,0)" xlink:href="#J"/><use transform="matrix(0.010850694444444444,0,0,0.010850694444444444,103.85199652777776,0)" xlink:href="#A"/><use transform="matrix(0.010850694444444444,0,0,0.010850694444444444,116.80772569444441,0)" xlink:href="#D"/></g><g id="u"><use transform="matrix(0.010850694444444444,0,0,0.010850694444444444,0,0)" xlink:href="#M"/><use transform="matrix(0.010850694444444444,0,0,0.010850694444444444,7.052951388888888,0)" xlink:href="#A"/><use transform="matrix(0.010850694444444444,0,0,0.010850694444444444,19.50954861111111,0)" xlink:href="#R"/><use transform="matrix(0.010850694444444444,0,0,0.010850694444444444,32.07465277777778,0)" xlink:href="#M"/><use transform="matrix(0.010850694444444444,0,0,0.010850694444444444,39.34461805555556,0)" xlink:href="#V"/><use transform="matrix(0.010850694444444444,0,0,0.010850694444444444,53.88454861111112,0)" xlink:href="#E"/><use transform="matrix(0.010850694444444444,0,0,0.010850694444444444,67.02473958333334,0)" xlink:href="#I"/><use transform="matrix(0.010850694444444444,0,0,0.010850694444444444,72.40668402777779,0)" xlink:href="#G"/><use transform="matrix(0.010850694444444444,0,0,0.010850694444444444,77.78862847222223,0)" xlink:href="#J"/><use transform="matrix(0.010850694444444444,0,0,0.010850694444444444,91.39539930555556,0)" xlink:href="#A"/><use transform="matrix(0.010850694444444444,0,0,0.010850694444444444,104.35112847222224,0)" xlink:href="#D"/></g></defs></g></svg>