<svg xmlns="http://www.w3.org/2000/svg" xmlns:xlink="http://www.w3.org/1999/xlink" contentStyleType="text/css" data-diagram-type="CLASS" height="453px" preserveAspectRatio="none" style="width:406px;height:453px;background:#1B1B1B;" version="1.1" viewBox="0 0 406 453" width="406px" zoomAndPan="magnify"><defs/><g><rect fill="#1B1B1B" height="453" style="stroke:none;stroke-width:1;" width="406" x="0" y="0"/><!--class RendererStyle--><g class="entity" data-entity="RendererStyle" data-source-line="1" data-uid="ent0002" id="entity_RendererStyle"><rect fill="#313139" height="64.2969" rx="2.5" ry="2.5" style="stroke:#E7E7E7;stroke-width:0.5;" width="182.9326" x="177.37" y="7"/><ellipse cx="215.2884" cy="23" fill="#352866" rx="11" ry="11" style="stroke:#E7E7E7;stroke-width:1;"/><path d="M211.2102,18.7656 L211.2102,16.6094 L218.6009,16.6094 L218.6009,18.7656 L216.1321,18.7656 L216.1321,26.8438 L218.6009,26.8438 L218.6009,29 L211.2102,29 L211.2102,26.8438 L213.679,26.8438 L213.679,18.7656 L211.2102,18.7656 Z " fill="#FFFFFF"/><text fill="#FFFFFF" font-family="sans-serif" font-size="14" font-style="italic" lengthAdjust="spacing" textLength="100.0029" x="234.3813" y="27.8467">RendererStyle</text><line style="stroke:#E7E7E7;stroke-width:0.5;" x1="178.37" x2="359.3026" y1="39" y2="39"/><ellipse cx="188.37" cy="52.6484" fill="none" rx="3" ry="3" style="stroke:#038048;stroke-width:1;"/><text fill="#FFFFFF" font-family="sans-serif" font-size="14" lengthAdjust="spacing" textLength="156.9326" x="197.37" y="55.9951">renderStyle: StyleText</text><line style="stroke:#E7E7E7;stroke-width:0.5;" x1="178.37" x2="359.3026" y1="63.2969" y2="63.2969"/></g><!--class Renderer--><g class="entity" data-entity="Renderer" data-source-line="5" data-uid="ent0003" id="entity_Renderer"><rect fill="#313139" height="64.2969" rx="2.5" ry="2.5" style="stroke:#E7E7E7;stroke-width:0.5;" width="146.0254" x="195.83" y="132.3"/><ellipse cx="232.9639" cy="148.3" fill="#352866" rx="11" ry="11" style="stroke:#E7E7E7;stroke-width:1;"/><path d="M228.8858,144.0656 L228.8858,141.9094 L236.2764,141.9094 L236.2764,144.0656 L233.8077,144.0656 L233.8077,152.1438 L236.2764,152.1438 L236.2764,154.3 L228.8858,154.3 L228.8858,152.1438 L231.3546,152.1438 L231.3546,144.0656 L228.8858,144.0656 Z " fill="#FFFFFF"/><text fill="#FFFFFF" font-family="sans-serif" font-size="14" font-style="italic" lengthAdjust="spacing" textLength="64.8389" x="251.8826" y="153.1467">Renderer</text><line style="stroke:#E7E7E7;stroke-width:0.5;" x1="196.83" x2="340.8554" y1="164.3" y2="164.3"/><ellipse cx="206.83" cy="177.9484" fill="none" rx="3" ry="3" style="stroke:#038048;stroke-width:1;"/><text fill="#FFFFFF" font-family="sans-serif" font-size="14" lengthAdjust="spacing" textLength="120.0254" x="215.83" y="181.2951">render: MainText</text><line style="stroke:#E7E7E7;stroke-width:0.5;" x1="196.83" x2="340.8554" y1="188.5969" y2="188.5969"/></g><!--class Metadata--><g class="entity" data-entity="Metadata" data-source-line="9" data-uid="ent0004" id="entity_Metadata"><rect fill="#313139" height="48" rx="2.5" ry="2.5" style="stroke:#E7E7E7;stroke-width:0.5;" width="98.2949" x="129.69" y="273.59"/><ellipse cx="144.69" cy="289.59" fill="#352866" rx="11" ry="11" style="stroke:#E7E7E7;stroke-width:1;"/><path d="M140.6119,285.3556 L140.6119,283.1994 L148.0025,283.1994 L148.0025,285.3556 L145.5338,285.3556 L145.5338,293.4338 L148.0025,293.4338 L148.0025,295.59 L140.6119,295.59 L140.6119,293.4338 L143.0806,293.4338 L143.0806,285.3556 L140.6119,285.3556 Z " fill="#FFFFFF"/><text fill="#FFFFFF" font-family="sans-serif" font-size="14" font-style="italic" lengthAdjust="spacing" textLength="66.2949" x="158.69" y="294.4367">Metadata</text><line style="stroke:#E7E7E7;stroke-width:0.5;" x1="130.69" x2="226.9849" y1="305.59" y2="305.59"/><line style="stroke:#E7E7E7;stroke-width:0.5;" x1="130.69" x2="226.9849" y1="313.59" y2="313.59"/></g><!--class Content--><g class="entity" data-entity="Content" data-source-line="12" data-uid="ent0005" id="entity_Content"><rect fill="#313139" height="48" rx="2.5" ry="2.5" style="stroke:#E7E7E7;stroke-width:0.5;" width="87.6787" x="7" y="273.59"/><ellipse cx="22" cy="289.59" fill="#352866" rx="11" ry="11" style="stroke:#E7E7E7;stroke-width:1;"/><path d="M17.9219,285.3556 L17.9219,283.1994 L25.3125,283.1994 L25.3125,285.3556 L22.8438,285.3556 L22.8438,293.4338 L25.3125,293.4338 L25.3125,295.59 L17.9219,295.59 L17.9219,293.4338 L20.3906,293.4338 L20.3906,285.3556 L17.9219,285.3556 Z " fill="#FFFFFF"/><text fill="#FFFFFF" font-family="sans-serif" font-size="14" font-style="italic" lengthAdjust="spacing" textLength="55.6787" x="36" y="294.4367">Content</text><line style="stroke:#E7E7E7;stroke-width:0.5;" x1="8" x2="93.6787" y1="305.59" y2="305.59"/><line style="stroke:#E7E7E7;stroke-width:0.5;" x1="8" x2="93.6787" y1="313.59" y2="313.59"/></g><!--class Papyrus--><g class="entity" data-entity="Papyrus" data-source-line="15" data-uid="ent0006" id="entity_Papyrus"><rect fill="#313139" height="64.2969" rx="2.5" ry="2.5" style="stroke:#E7E7E7;stroke-width:0.5;" width="88.1162" x="39.78" y="132.3"/><ellipse cx="54.78" cy="148.3" fill="#352866" rx="11" ry="11" style="stroke:#E7E7E7;stroke-width:1;"/><path d="M50.7019,144.0656 L50.7019,141.9094 L58.0925,141.9094 L58.0925,144.0656 L55.6238,144.0656 L55.6238,152.1438 L58.0925,152.1438 L58.0925,154.3 L50.7019,154.3 L50.7019,152.1438 L53.1706,152.1438 L53.1706,144.0656 L50.7019,144.0656 Z " fill="#FFFFFF"/><text fill="#FFFFFF" font-family="sans-serif" font-size="14" font-style="italic" lengthAdjust="spacing" textLength="56.1162" x="68.78" y="153.1467">Papyrus</text><line style="stroke:#E7E7E7;stroke-width:0.5;" x1="40.78" x2="126.8962" y1="164.3" y2="164.3"/><ellipse cx="50.78" cy="177.9484" fill="none" rx="3" ry="3" style="stroke:#038048;stroke-width:1;"/><text fill="#FFFFFF" font-family="sans-serif" font-size="14" lengthAdjust="spacing" textLength="34.4258" x="59.78" y="181.2951">build</text><line style="stroke:#E7E7E7;stroke-width:0.5;" x1="40.78" x2="126.8962" y1="188.5969" y2="188.5969"/></g><!--class LayerElement--><g class="entity" data-entity="LayerElement" data-source-line="19" data-uid="ent0007" id="entity_LayerElement"><rect fill="#313139" height="48" rx="2.5" ry="2.5" style="stroke:#E7E7E7;stroke-width:0.5;" width="128.9951" x="263.34" y="273.59"/><ellipse cx="278.34" cy="289.59" fill="#352866" rx="11" ry="11" style="stroke:#E7E7E7;stroke-width:1;"/><path d="M274.2619,285.3556 L274.2619,283.1994 L281.6525,283.1994 L281.6525,285.3556 L279.1838,285.3556 L279.1838,293.4338 L281.6525,293.4338 L281.6525,295.59 L274.2619,295.59 L274.2619,293.4338 L276.7306,293.4338 L276.7306,285.3556 L274.2619,285.3556 Z " fill="#FFFFFF"/><text fill="#FFFFFF" font-family="sans-serif" font-size="14" font-style="italic" lengthAdjust="spacing" textLength="96.9951" x="292.34" y="294.4367">LayerElement</text><line style="stroke:#E7E7E7;stroke-width:0.5;" x1="264.34" x2="391.3351" y1="305.59" y2="305.59"/><line style="stroke:#E7E7E7;stroke-width:0.5;" x1="264.34" x2="391.3351" y1="313.59" y2="313.59"/></g><!--class CaptionElement--><g class="entity" data-entity="CaptionElement" data-source-line="22" data-uid="ent0008" id="entity_CaptionElement"><rect fill="#313139" height="64.2969" rx="2.5" ry="2.5" style="stroke:#E7E7E7;stroke-width:0.5;" width="144.0205" x="255.83" y="382.59"/><ellipse cx="270.83" cy="398.59" fill="#352866" rx="11" ry="11" style="stroke:#E7E7E7;stroke-width:1;"/><path d="M266.7519,394.3556 L266.7519,392.1994 L274.1425,392.1994 L274.1425,394.3556 L271.6738,394.3556 L271.6738,402.4338 L274.1425,402.4338 L274.1425,404.59 L266.7519,404.59 L266.7519,402.4338 L269.2206,402.4338 L269.2206,394.3556 L266.7519,394.3556 Z " fill="#FFFFFF"/><text fill="#FFFFFF" font-family="sans-serif" font-size="14" font-style="italic" lengthAdjust="spacing" textLength="112.0205" x="284.83" y="403.4367">CaptionElement</text><line style="stroke:#E7E7E7;stroke-width:0.5;" x1="256.83" x2="398.8505" y1="414.59" y2="414.59"/><ellipse cx="266.83" cy="428.2384" fill="none" rx="3" ry="3" style="stroke:#038048;stroke-width:1;"/><text fill="#FFFFFF" font-family="sans-serif" font-size="14" lengthAdjust="spacing" textLength="51.9805" x="275.83" y="431.5851">caption</text><line style="stroke:#E7E7E7;stroke-width:0.5;" x1="256.83" x2="398.8505" y1="438.8869" y2="438.8869"/></g><!--reverse link RendererStyle to Renderer--><g class="link" data-entity-1="RendererStyle" data-entity-2="Renderer" data-source-line="26" data-uid="lnk9" id="link_RendererStyle_Renderer"><path codeLine="26" d="M268.84,89.58 C268.84,108.13 268.84,113.53 268.84,132.07" fill="none" id="RendererStyle-backto-Renderer" style="stroke:#E7E7E7;stroke-width:1;stroke-dasharray:7,7;"/><polygon fill="none" points="268.84,71.58,262.84,89.58,274.84,89.58,268.84,71.58" style="stroke:#E7E7E7;stroke-width:1;"/></g><!--reverse link Renderer to Metadata--><g class="link" data-entity-1="Renderer" data-entity-2="Metadata" data-source-line="27" data-uid="lnk10" id="link_Renderer_Metadata"><path codeLine="27" d="M260.9772,214.6734 C257.8472,229.7334 256.11,229.79 246.84,243.59 C239.16,255.02 228.22,265.08 217.35,273.28" fill="none" id="Renderer-backto-Metadata" style="stroke:#E7E7E7;stroke-width:1;stroke-dasharray:7,7;"/><polygon fill="none" points="264.64,197.05,255.1028,213.4525,266.8517,215.8943,264.64,197.05" style="stroke:#E7E7E7;stroke-width:1;"/></g><!--reverse link Renderer to Content--><g class="link" data-entity-1="Renderer" data-entity-2="Content" data-source-line="28" data-uid="lnk11" id="link_Renderer_Content"><path codeLine="28" d="M239.5681,211.8021 C228.5181,227.7721 223.52,231.48 205.84,243.59 C169.66,268.38 153.26,259.19 111.84,273.59 C106.39,275.49 100.69,277.54 95.05,279.62" fill="none" id="Renderer-backto-Content" style="stroke:#E7E7E7;stroke-width:1;stroke-dasharray:7,7;"/><polygon fill="none" points="249.81,197,234.634,208.3882,244.5021,215.2161,249.81,197" style="stroke:#E7E7E7;stroke-width:1;"/></g><!--reverse link Renderer to LayerElement--><g class="link" data-entity-1="Renderer" data-entity-2="LayerElement" data-source-line="29" data-uid="lnk12" id="link_Renderer_LayerElement"><path codeLine="29" d="M290.3563,213.2747 C300.9263,236.7647 307.76,251.96 317.33,273.24" fill="none" id="Renderer-backto-LayerElement" style="stroke:#E7E7E7;stroke-width:1;stroke-dasharray:7,7;"/><polygon fill="none" points="282.97,196.86,284.8847,215.7368,295.8278,210.8126,282.97,196.86" style="stroke:#E7E7E7;stroke-width:1;"/></g><!--reverse link LayerElement to CaptionElement--><g class="link" data-entity-1="LayerElement" data-entity-2="CaptionElement" data-source-line="30" data-uid="lnk13" id="link_LayerElement_CaptionElement"><path codeLine="30" d="M327.84,339.9 C327.84,357.24 327.84,363.12 327.84,382.18" fill="none" id="LayerElement-backto-CaptionElement" style="stroke:#E7E7E7;stroke-width:1;stroke-dasharray:7,7;"/><polygon fill="none" points="327.84,321.9,321.84,339.9,333.84,339.9,327.84,321.9" style="stroke:#E7E7E7;stroke-width:1;"/></g><!--link Papyrus to Metadata--><g class="link" data-entity-1="Papyrus" data-entity-2="Metadata" data-source-line="32" data-uid="lnk14" id="link_Papyrus_Metadata"><path codeLine="32" d="M106.59,196.86 C123.61,220.35 142.9909,247.1004 158.4009,268.3804" fill="none" id="Papyrus-to-Metadata" style="stroke:#E7E7E7;stroke-width:1;"/><polygon fill="#E7E7E7" points="161.92,273.24,159.8811,263.6045,158.9874,269.1903,153.4016,268.2967,161.92,273.24" style="stroke:#E7E7E7;stroke-width:1;"/><text fill="#FFFFFF" font-family="sans-serif" font-size="13" lengthAdjust="spacing" textLength="55.0278" x="141.84" y="239.6569">contains</text></g><!--link Papyrus to Content--><g class="link" data-entity-1="Papyrus" data-entity-2="Content" data-source-line="33" data-uid="lnk15" id="link_Papyrus_Content"><path codeLine="33" d="M60.98,197 C55.6,206.12 50.62,216.37 47.84,226.59 C43.71,241.73 43.7334,253.4405 45.5334,267.2305" fill="none" id="Papyrus-to-Content" style="stroke:#E7E7E7;stroke-width:1;"/><polygon fill="#E7E7E7" points="46.31,273.18,49.1115,263.738,45.6628,268.2221,41.1788,264.7734,46.31,273.18" style="stroke:#E7E7E7;stroke-width:1;"/><text fill="#FFFFFF" font-family="sans-serif" font-size="13" lengthAdjust="spacing" textLength="55.0278" x="48.84" y="239.6569">contains</text></g><!--SRC=[RP113e8m44NtSuhk2Ho063V4dIH6lS08Oz842ob3GgFUtK85791DoVl_J_wCDapsZWMfCvcIBDaBkuhK4vJ_8Zl24QLgVAxKCxm1z2OeCwdAKPkjEoV64XczM_2izh-6r_Y4ZRDT6sP7jqvNfJGSqP4zLFJu4ywmOLsRHHrc504EJhdoxfKaypAp5l3KUeM_fLVqjnA8VY4aMW5CAyRnVhbEgWe_sr-m5VfqfKN-0000]--></g></svg>